{
.appVersion = "1060";
copyright = "Copyright 2017 Google Inc. All Rights Reserved.";
customParameters = (
{
name = glyphOrder;
value = (
.notdef,
NULL,
CR,
space,
uni00A0,
uni0964,
uni0965,
uni09E6,
uni09E7,
uni09E8,
uni09E9,
uni09EA,
uni09EB,
uni09EC,
uni09ED,
uni09EE,
uni09EF,
uniA800,
uniA801,
uniA802,
uniA803,
uniA804,
uniA805,
uniA806,
uniA807,
uniA808,
uniA809,
uniA80A,
uniA80B,
uniA80C,
uniA80D,
uniA80E,
uniA80F,
uniA810,
uniA811,
uniA812,
uniA813,
uniA814,
uniA815,
uniA816,
uniA817,
uniA818,
uniA819,
uniA81A,
uniA81B,
uniA81C,
uniA81D,
uniA81E,
uniA81F,
uniA820,
uniA821,
uniA822,
uniA823,
uniA824,
uniA825,
uniA826,
uniA827,
uniA828,
uniA829,
uniA82A,
uniA82B,
uniA807uniA807,
uniA807uniA814,
uniA80CuniA80C,
uniA80CuniA80D,
uniA80EuniA80E,
uniA814uniA814,
uniA818uniA814,
uniA818uniA816,
uniA818uniA818,
uniA81BuniA81B,
uniA81DuniA81B,
uniA81DuniA81D,
uniA81EuniA81F,
uniA821uniA807,
uniA821uniA80C,
uniA821uniA80D,
uniA821uniA814,
uniA821uniA81B,
uni200B,
uni200C,
uni200D,
uni2010,
uni2011,
uni2055,
uni25CC
);
},
{
name = description;
value = "Designed by Monotype design team.";
},
{
name = license;
value = "This Font Software is licensed under the SIL Open Font License, Version 1.1. This Font Software is distributed on an \"AS IS\" BASIS, WITHOUT WARRANTIES OR CONDITIONS OF ANY KIND, either express or implied. See the SIL Open Font License for the specific language, permissions and limitations governing your use of this Font Software.";
},
{
name = licenseURL;
value = "http://scripts.sil.org/OFL";
},
{
name = vendorID;
value = GOOG;
},
{
name = unicodeRanges;
value = (
0,
1,
15,
16,
31,
45,
100
);
},
{
name = trademark;
value = "Noto is a trademark of Google Inc.";
},
{
name = "Has WWS Names";
value = 1;
},
{
name = versionString;
value = "Version 1.900";
},
{
name = fsType;
value = (
);
},
{
name = codePageRanges;
value = (
"1252"
);
}
);
date = "2017-05-16 19:16:46 +0000";
designer = "Monotype Design Team";
designerURL = "http://www.monotype.com/studio";

glyphs = (
{
glyphname = .notdef;
lastChange = "2017-09-15 12:55:41 +0000";
layers = (
{
layerId = UUID0;
paths = (
{
closed = 1;
nodes = (
"505 0 LINE",
"505 714 LINE",
"94 714 LINE",
"94 0 LINE"
);
},
{
closed = 1;
nodes = (
"145 663 LINE",
"454 663 LINE",
"454 51 LINE",
"145 51 LINE"
);
}
);
width = 600;
}
);
},
{
glyphname = uni0964;
lastChange = "2017-09-15 12:55:41 +0000";
layers = (
{
layerId = UUID0;
paths = (
{
closed = 1;
nodes = (
"275 622 LINE",
"194 622 LINE",
"194 0 LINE",
"275 0 LINE"
);
}
);
width = 379;
}
);
note = uni0964;
unicode = 0964;
},
{
glyphname = uni0965;
lastChange = "2017-09-15 12:55:41 +0000";
layers = (
{
layerId = UUID0;
paths = (
{
closed = 1;
nodes = (
"495 622 LINE",
"414 622 LINE",
"414 0 LINE",
"495 0 LINE"
);
},
{
closed = 1;
nodes = (
"275 622 LINE",
"194 622 LINE",
"194 0 LINE",
"275 0 LINE"
);
}
);
width = 599;
}
);
note = uni0965;
unicode = 0965;
},
{
glyphname = uni09E6;
lastChange = "2017-09-15 12:55:41 +0000";
layers = (
{
layerId = UUID0;
paths = (
{
closed = 1;
nodes = (
"72 172 OFFCURVE",
"153 91 OFFCURVE",
"290 91 CURVE SMOOTH",
"433 91 OFFCURVE",
"520 181 OFFCURVE",
"520 314 CURVE SMOOTH",
"520 459 OFFCURVE",
"442 544 OFFCURVE",
"300 544 CURVE SMOOTH",
"162 544 OFFCURVE",
"72 454 OFFCURVE",
"72 320 CURVE SMOOTH"
);
},
{
closed = 1;
nodes = (
"152 411 OFFCURVE",
"210 473 OFFCURVE",
"305 473 CURVE SMOOTH",
"391 473 OFFCURVE",
"439 418 OFFCURVE",
"439 324 CURVE SMOOTH",
"439 225 OFFCURVE",
"382 162 OFFCURVE",
"289 162 CURVE SMOOTH",
"201 162 OFFCURVE",
"152 217 OFFCURVE",
"152 311 CURVE SMOOTH"
);
}
);
width = 592;
}
);
note = uni09E6;
unicode = 09E6;
},
{
glyphname = uni09E7;
lastChange = "2017-09-15 12:55:41 +0000";
layers = (
{
layerId = UUID0;
paths = (
{
closed = 1;
nodes = (
"160 222 OFFCURVE",
"123 181 OFFCURVE",
"123 122 CURVE SMOOTH",
"123 48 OFFCURVE",
"183 0 OFFCURVE",
"287 0 CURVE SMOOTH",
"403 0 OFFCURVE",
"495 68 OFFCURVE",
"495 178 CURVE SMOOTH",
"495 262 OFFCURVE",
"465 299 OFFCURVE",
"436 328 CURVE SMOOTH",
"393 371 OFFCURVE",
"312 418 OFFCURVE",
"270 451 CURVE SMOOTH",
"246 470 OFFCURVE",
"206 492 OFFCURVE",
"206 534 CURVE SMOOTH",
"206 558 OFFCURVE",
"219 576 OFFCURVE",
"238 596 CURVE",
"174 631 LINE",
"142 600 OFFCURVE",
"122 561 OFFCURVE",
"122 529 CURVE SMOOTH",
"122 490 OFFCURVE",
"138 461 OFFCURVE",
"184 421 CURVE SMOOTH",
"207 401 OFFCURVE",
"302 334 OFFCURVE",
"342 302 CURVE SMOOTH",
"387 266 OFFCURVE",
"415 238 OFFCURVE",
"415 181 CURVE SMOOTH",
"415 118 OFFCURVE",
"364 75 OFFCURVE",
"286 75 CURVE SMOOTH",
"235 75 OFFCURVE",
"205 92 OFFCURVE",
"205 120 CURVE SMOOTH",
"205 145 OFFCURVE",
"222 157 OFFCURVE",
"263 167 CURVE",
"234 243 LINE"
);
}
);
width = 592;
}
);
note = uni09E7;
unicode = 09E7;
},
{
glyphname = uni09E8;
lastChange = "2017-09-15 12:55:41 +0000";
layers = (
{
layerId = UUID0;
paths = (
{
closed = 1;
nodes = (
"432 188 OFFCURVE",
"500 252 OFFCURVE",
"500 333 CURVE SMOOTH",
"500 427 OFFCURVE",
"447 471 OFFCURVE",
"322 494 CURVE SMOOTH",
"289 500 OFFCURVE",
"265 506 OFFCURVE",
"250 511 CURVE SMOOTH",
"222 520 OFFCURVE",
"211 528 OFFCURVE",
"211 549 CURVE SMOOTH",
"211 565 OFFCURVE",
"219 581 OFFCURVE",
"233 596 CURVE",
"170 631 LINE",
"142 597 OFFCURVE",
"127 566 OFFCURVE",
"127 539 CURVE SMOOTH",
"127 482 OFFCURVE",
"174 451 OFFCURVE",
"285 428 CURVE SMOOTH",
"368 411 OFFCURVE",
"419 398 OFFCURVE",
"419 333 CURVE SMOOTH",
"419 267 OFFCURVE",
"358 233 OFFCURVE",
"235 233 CURVE SMOOTH",
"180 233 OFFCURVE",
"136 239 OFFCURVE",
"80 256 CURVE",
"65 185 LINE",
"285 136 OFFCURVE",
"380 80 OFFCURVE",
"507 -26 CURVE",
"553 28 LINE",
"476 92 OFFCURVE",
"396 140 OFFCURVE",
"316 173 CURVE"
);
}
);
width = 592;
}
);
note = uni09E8;
unicode = 09E8;
},
{
glyphname = uni09E9;
lastChange = "2017-09-15 12:55:41 +0000";
layers = (
{
layerId = UUID0;
paths = (
{
closed = 1;
nodes = (
"82 234 OFFCURVE",
"137 39 OFFCURVE",
"346 39 CURVE SMOOTH",
"480 39 OFFCURVE",
"553 132 OFFCURVE",
"553 295 CURVE SMOOTH",
"553 449 OFFCURVE",
"477 579 OFFCURVE",
"337 579 CURVE SMOOTH",
"262 579 OFFCURVE",
"207 538 OFFCURVE",
"207 467 CURVE SMOOTH",
"207 436 OFFCURVE",
"215 403 OFFCURVE",
"231 369 CURVE",
"311 390 LINE",
"298 415 OFFCURVE",
"292 438 OFFCURVE",
"292 458 CURVE SMOOTH",
"292 490 OFFCURVE",
"312 509 OFFCURVE",
"347 509 CURVE SMOOTH",
"427 509 OFFCURVE",
"473 399 OFFCURVE",
"473 295 CURVE SMOOTH",
"473 176 OFFCURVE",
"428 114 OFFCURVE",
"341 114 CURVE SMOOTH",
"194 114 OFFCURVE",
"148 297 OFFCURVE",
"103 510 CURVE",
"29 490 LINE"
);
}
);
width = 592;
}
);
note = uni09E9;
unicode = 09E9;
},
{
glyphname = uni09EA;
lastChange = "2017-09-15 12:55:41 +0000";
layers = (
{
layerId = UUID0;
paths = (
{
closed = 1;
nodes = (
"481 367 OFFCURVE",
"519 411 OFFCURVE",
"519 476 CURVE SMOOTH",
"519 563 OFFCURVE",
"438 622 OFFCURVE",
"290 622 CURVE SMOOTH",
"177 622 OFFCURVE",
"74 568 OFFCURVE",
"74 471 CURVE SMOOTH",
"74 406 OFFCURVE",
"106 369 OFFCURVE",
"198 326 CURVE",
"106 289 OFFCURVE",
"63 240 OFFCURVE",
"63 174 CURVE SMOOTH",
"63 67 OFFCURVE",
"150 0 OFFCURVE",
"296 0 CURVE SMOOTH",
"452 0 OFFCURVE",
"530 58 OFFCURVE",
"530 174 CURVE SMOOTH",
"530 246 OFFCURVE",
"492 292 OFFCURVE",
"393 331 CURVE"
);
},
{
closed = 1;
nodes = (
"198 388 OFFCURVE",
"154 420 OFFCURVE",
"154 471 CURVE SMOOTH",
"154 519 OFFCURVE",
"213 551 OFFCURVE",
"291 551 CURVE SMOOTH",
"384 551 OFFCURVE",
"438 521 OFFCURVE",
"438 471 CURVE SMOOTH",
"438 426 OFFCURVE",
"381 385 OFFCURVE",
"297 363 CURVE"
);
},
{
closed = 1;
nodes = (
"390 272 OFFCURVE",
"450 227 OFFCURVE",
"450 173 CURVE SMOOTH",
"450 106 OFFCURVE",
"396 71 OFFCURVE",
"296 71 CURVE SMOOTH",
"200 71 OFFCURVE",
"143 110 OFFCURVE",
"143 169 CURVE SMOOTH",
"143 226 OFFCURVE",
"190 264 OFFCURVE",
"296 292 CURVE"
);
}
);
width = 592;
}
);
note = uni09EA;
unicode = 09EA;
},
{
glyphname = uni09EB;
lastChange = "2017-09-15 12:55:41 +0000";
layers = (
{
layerId = UUID0;
paths = (
{
closed = 1;
nodes = (
"160 509 OFFCURVE",
"49 391 OFFCURVE",
"49 248 CURVE SMOOTH",
"49 95 OFFCURVE",
"153 0 OFFCURVE",
"313 0 CURVE SMOOTH",
"407 0 OFFCURVE",
"495 22 OFFCURVE",
"561 63 CURVE",
"528 146 LINE",
"521 145 OFFCURVE",
"509 144 OFFCURVE",
"492 144 CURVE SMOOTH",
"426 144 OFFCURVE",
"392 172 OFFCURVE",
"392 221 CURVE SMOOTH",
"392 281 OFFCURVE",
"439 331 OFFCURVE",
"566 400 CURVE",
"533 456 LINE",
"527 455 OFFCURVE",
"524 455 OFFCURVE",
"518 455 CURVE SMOOTH",
"467 455 OFFCURVE",
"434 481 OFFCURVE",
"434 519 CURVE SMOOTH",
"434 539 OFFCURVE",
"440 558 OFFCURVE",
"453 575 CURVE",
"414 629 LINE"
);
},
{
closed = 1;
nodes = (
"367 521 OFFCURVE",
"367 516 OFFCURVE",
"367 507 CURVE SMOOTH",
"367 460 OFFCURVE",
"397 420 OFFCURVE",
"445 407 CURVE",
"355 344 OFFCURVE",
"316 289 OFFCURVE",
"316 222 CURVE SMOOTH",
"316 147 OFFCURVE",
"365 101 OFFCURVE",
"455 89 CURVE",
"398 74 OFFCURVE",
"369 71 OFFCURVE",
"320 71 CURVE SMOOTH",
"204 71 OFFCURVE",
"130 131 OFFCURVE",
"130 238 CURVE SMOOTH",
"130 345 OFFCURVE",
"210 443 OFFCURVE",
"368 525 CURVE"
);
}
);
width = 592;
}
);
note = uni09EB;
unicode = 09EB;
},
{
glyphname = uni09EC;
lastChange = "2017-09-15 12:55:41 +0000";
layers = (
{
layerId = UUID0;
paths = (
{
closed = 1;
nodes = (
"77 220 OFFCURVE",
"157 39 OFFCURVE",
"347 39 CURVE SMOOTH",
"482 39 OFFCURVE",
"559 125 OFFCURVE",
"559 268 CURVE SMOOTH",
"559 327 OFFCURVE",
"536 400 OFFCURVE",
"499 452 CURVE",
"443 438 LINE",
"417 366 OFFCURVE",
"389 328 OFFCURVE",
"348 328 CURVE SMOOTH",
"323 328 OFFCURVE",
"312 346 OFFCURVE",
"312 380 CURVE SMOOTH",
"312 471 LINE SMOOTH",
"312 566 OFFCURVE",
"267 591 OFFCURVE",
"175 593 CURVE",
"166 517 LINE",
"222 514 OFFCURVE",
"235 505 OFFCURVE",
"235 451 CURVE SMOOTH",
"235 388 LINE SMOOTH",
"235 299 OFFCURVE",
"275 257 OFFCURVE",
"340 257 CURVE SMOOTH",
"393 257 OFFCURVE",
"436 288 OFFCURVE",
"469 349 CURVE",
"479 323 OFFCURVE",
"483 297 OFFCURVE",
"483 271 CURVE SMOOTH",
"483 171 OFFCURVE",
"432 114 OFFCURVE",
"342 114 CURVE SMOOTH",
"217 114 OFFCURVE",
"148 229 OFFCURVE",
"96 475 CURVE",
"21 452 LINE"
);
}
);
width = 592;
}
);
note = uni09EC;
unicode = 09EC;
},
{
glyphname = uni09ED;
lastChange = "2017-09-15 12:55:41 +0000";
layers = (
{
layerId = UUID0;
paths = (
{
closed = 1;
nodes = (
"383 28 OFFCURVE",
"427 2 OFFCURVE",
"520 0 CURVE",
"528 77 LINE",
"472 80 OFFCURVE",
"459 90 OFFCURVE",
"459 141 CURVE SMOOTH",
"459 467 LINE SMOOTH",
"459 576 OFFCURVE",
"396 622 OFFCURVE",
"296 622 CURVE SMOOTH",
"182 622 OFFCURVE",
"70 529 OFFCURVE",
"70 411 CURVE SMOOTH",
"70 306 OFFCURVE",
"141 248 OFFCURVE",
"268 248 CURVE SMOOTH",
"306 248 OFFCURVE",
"344 253 OFFCURVE",
"383 266 CURVE",
"383 122 LINE SMOOTH"
);
},
{
closed = 1;
nodes = (
"348 330 OFFCURVE",
"309 322 OFFCURVE",
"266 322 CURVE SMOOTH",
"191 322 OFFCURVE",
"151 351 OFFCURVE",
"151 406 CURVE SMOOTH",
"151 484 OFFCURVE",
"223 551 OFFCURVE",
"296 551 CURVE SMOOTH",
"352 551 OFFCURVE",
"382 533 OFFCURVE",
"382 455 CURVE SMOOTH",
"382 346 LINE"
);
}
);
width = 592;
}
);
note = uni09ED;
unicode = 09ED;
},
{
glyphname = uni09EE;
lastChange = "2017-09-15 12:55:41 +0000";
layers = (
{
layerId = UUID0;
paths = (
{
closed = 1;
nodes = (
"167 595 OFFCURVE",
"124 621 OFFCURVE",
"31 624 CURVE",
"22 547 LINE",
"78 544 OFFCURVE",
"91 535 OFFCURVE",
"91 481 CURVE SMOOTH",
"91 154 LINE SMOOTH",
"91 54 OFFCURVE",
"144 0 OFFCURVE",
"237 0 CURVE SMOOTH",
"357 0 OFFCURVE",
"448 86 OFFCURVE",
"448 213 CURVE SMOOTH",
"448 244 OFFCURVE",
"442 270 OFFCURVE",
"430 293 CURVE",
"434 292 OFFCURVE",
"438 292 OFFCURVE",
"442 292 CURVE SMOOTH",
"514 292 OFFCURVE",
"562 322 OFFCURVE",
"586 383 CURVE",
"514 418 LINE",
"494 380 OFFCURVE",
"470 360 OFFCURVE",
"408 360 CURVE SMOOTH",
"349 360 OFFCURVE",
"330 375 OFFCURVE",
"269 375 CURVE SMOOTH",
"242 375 OFFCURVE",
"201 368 OFFCURVE",
"167 355 CURVE",
"167 501 LINE SMOOTH"
);
},
{
closed = 1;
nodes = (
"200 296 OFFCURVE",
"236 304 OFFCURVE",
"274 304 CURVE SMOOTH",
"333 304 OFFCURVE",
"368 272 OFFCURVE",
"368 212 CURVE SMOOTH",
"368 134 OFFCURVE",
"316 71 OFFCURVE",
"238 71 CURVE SMOOTH",
"193 71 OFFCURVE",
"167 88 OFFCURVE",
"167 168 CURVE SMOOTH",
"167 281 LINE"
);
}
);
width = 592;
}
);
note = uni09EE;
unicode = 09EE;
},
{
glyphname = uni09EF;
lastChange = "2017-09-15 12:55:41 +0000";
layers = (
{
layerId = UUID0;
paths = (
{
closed = 1;
nodes = (
"321 105 OFFCURVE",
"333 137 OFFCURVE",
"333 181 CURVE SMOOTH",
"333 259 OFFCURVE",
"266 315 OFFCURVE",
"174 315 CURVE SMOOTH",
"81 315 OFFCURVE",
"27 273 OFFCURVE",
"27 207 CURVE SMOOTH",
"27 185 OFFCURVE",
"33 161 OFFCURVE",
"44 135 CURVE",
"120 152 LINE",
"112 166 OFFCURVE",
"108 181 OFFCURVE",
"108 196 CURVE SMOOTH",
"108 228 OFFCURVE",
"131 245 OFFCURVE",
"175 245 CURVE SMOOTH",
"227 245 OFFCURVE",
"257 216 OFFCURVE",
"257 169 CURVE SMOOTH",
"257 123 OFFCURVE",
"226 91 OFFCURVE",
"161 68 CURVE",
"183 0 LINE",
"197 0 LINE SMOOTH",
"429 0 OFFCURVE",
"558 75 OFFCURVE",
"558 216 CURVE SMOOTH",
"558 326 OFFCURVE",
"501 376 OFFCURVE",
"389 420 CURVE SMOOTH",
"342 439 OFFCURVE",
"238 464 OFFCURVE",
"200 479 CURVE SMOOTH",
"149 499 OFFCURVE",
"118 511 OFFCURVE",
"118 549 CURVE SMOOTH",
"118 562 OFFCURVE",
"127 577 OFFCURVE",
"146 596 CURVE",
"83 631 LINE",
"51 602 OFFCURVE",
"35 570 OFFCURVE",
"35 536 CURVE SMOOTH",
"35 474 OFFCURVE",
"75 439 OFFCURVE",
"188 401 CURVE SMOOTH",
"240 384 OFFCURVE",
"359 352 OFFCURVE",
"395 331 CURVE SMOOTH",
"448 300 OFFCURVE",
"476 277 OFFCURVE",
"476 214 CURVE SMOOTH",
"476 138 OFFCURVE",
"412 89 OFFCURVE",
"290 73 CURVE"
);
}
);
width = 592;
}
);
note = uni09EF;
unicode = 09EF;
},
{
glyphname = uniA800;
production = uniA800;
lastChange = "2017-09-15 12:55:41 +0000";
layers = (
{
layerId = UUID0;
paths = (
{
closed = 1;
nodes = (
"743 0 LINE",
"743 611 LINE",
"816 611 LINE",
"816 679 LINE",
"-17 679 LINE",
"-17 611 LINE",
"662 611 LINE",
"304 186 OFFCURVE",
"227 81 OFFCURVE",
"164 81 CURVE SMOOTH",
"137 81 OFFCURVE",
"124 97 OFFCURVE",
"108 139 CURVE",
"37 106 LINE",
"65 27 OFFCURVE",
"106 4 OFFCURVE",
"157 4 CURVE SMOOTH",
"278 4 OFFCURVE",
"361 133 OFFCURVE",
"665 506 CURVE",
"668 505 LINE",
"668 0 LINE"
);
}
);
width = 808;
}
);
unicode = A800;
},
{
glyphname = uniA801;
production = uniA801;
lastChange = "2017-09-15 12:55:41 +0000";
layers = (
{
layerId = UUID0;
paths = (
{
closed = 1;
nodes = (
"456 28 LINE",
"372 153 OFFCURVE",
"267 189 OFFCURVE",
"188 217 CURVE",
"189 221 LINE",
"325 221 OFFCURVE",
"443 290 OFFCURVE",
"443 410 CURVE SMOOTH",
"443 485 OFFCURVE",
"393 533 OFFCURVE",
"326 533 CURVE SMOOTH",
"291 533 OFFCURVE",
"254 528 OFFCURVE",
"200 483 CURVE",
"200 611 LINE",
"526 611 LINE",
"526 679 LINE",
"-17 679 LINE",
"-17 611 LINE",
"122 611 LINE",
"122 397 LINE",
"178 374 LINE",
"222 451 OFFCURVE",
"283 467 OFFCURVE",
"305 467 CURVE SMOOTH",
"337 467 OFFCURVE",
"367 452 OFFCURVE",
"367 404 CURVE SMOOTH",
"367 321 OFFCURVE",
"264 274 OFFCURVE",
"148 274 CURVE SMOOTH",
"125 274 OFFCURVE",
"109 275 OFFCURVE",
"78 279 CURVE",
"67 205 LINE",
"147 182 OFFCURVE",
"287 144 OFFCURVE",
"395 -14 CURVE"
);
}
);
width = 514;
}
);
unicode = A801;
},
{
glyphname = uniA802;
production = uniA802;
lastChange = "2017-09-15 12:55:41 +0000";
layers = (
{
layerId = UUID0;
paths = (
{
closed = 1;
nodes = (
"-235 769 LINE",
"-397 947 LINE",
"-451 898 LINE",
"-279 726 LINE"
);
},
{
closed = 1;
nodes = (
"-124 767 LINE",
"-248 975 LINE",
"-311 935 LINE",
"-176 734 LINE"
);
}
);
width = 0;
}
);
unicode = A802;
},
{
glyphname = uniA803;
production = uniA803;
lastChange = "2017-09-15 12:55:41 +0000";
layers = (
{
layerId = UUID0;
paths = (
{
closed = 1;
nodes = (
"503 0 OFFCURVE",
"666 49 OFFCURVE",
"666 199 CURVE SMOOTH",
"666 292 OFFCURVE",
"612 347 OFFCURVE",
"527 347 CURVE",
"560 368 OFFCURVE",
"577 402 OFFCURVE",
"577 435 CURVE SMOOTH",
"577 530 OFFCURVE",
"499 560 OFFCURVE",
"446 560 CURVE SMOOTH",
"380 560 OFFCURVE",
"298 518 OFFCURVE",
"298 435 CURVE SMOOTH",
"298 422 OFFCURVE",
"300 409 OFFCURVE",
"304 395 CURVE",
"380 412 LINE",
"378 420 OFFCURVE",
"377 428 OFFCURVE",
"377 435 CURVE SMOOTH",
"377 476 OFFCURVE",
"414 493 OFFCURVE",
"441 493 CURVE SMOOTH",
"473 493 OFFCURVE",
"502 475 OFFCURVE",
"502 433 CURVE SMOOTH",
"502 391 OFFCURVE",
"474 370 OFFCURVE",
"395 349 CURVE",
"417 278 LINE",
"441 287 OFFCURVE",
"475 295 OFFCURVE",
"500 295 CURVE SMOOTH",
"548 295 OFFCURVE",
"589 265 OFFCURVE",
"589 200 CURVE SMOOTH",
"589 103 OFFCURVE",
"469 74 OFFCURVE",
"379 74 CURVE SMOOTH",
"245 74 OFFCURVE",
"131 153 OFFCURVE",
"131 314 CURVE SMOOTH",
"131 475 OFFCURVE",
"249 574 OFFCURVE",
"301 615 CURVE",
"246 659 LINE",
"187 611 OFFCURVE",
"53 495 OFFCURVE",
"53 314 CURVE SMOOTH",
"53 94 OFFCURVE",
"230 0 OFFCURVE",
"380 0 CURVE SMOOTH"
);
},
{
closed = 1;
nodes = (
"737 611 LINE",
"737 679 LINE",
"-7 679 LINE",
"-7 611 LINE"
);
}
);
width = 726;
}
);
unicode = A803;
},
{
glyphname = uniA804;
production = uniA804;
lastChange = "2017-09-15 12:55:41 +0000";
layers = (
{
layerId = UUID0;
paths = (
{
closed = 1;
nodes = (
"301 -8 OFFCURVE",
"339 -1 OFFCURVE",
"397 28 CURVE",
"361 93 LINE",
"318 69 OFFCURVE",
"288 62 OFFCURVE",
"259 62 CURVE SMOOTH",
"204 62 OFFCURVE",
"166 99 OFFCURVE",
"166 187 CURVE SMOOTH",
"166 237 LINE",
"387 237 OFFCURVE",
"483 333 OFFCURVE",
"483 611 CURVE",
"578 611 LINE",
"578 679 LINE",
"478 679 LINE",
"460 887 OFFCURVE",
"283 919 OFFCURVE",
"156 932 CURVE",
"143 868 LINE",
"262 849 OFFCURVE",
"392 830 OFFCURVE",
"407 679 CURVE",
"-17 679 LINE",
"-17 611 LINE",
"90 611 LINE",
"90 187 LINE SMOOTH",
"90 58 OFFCURVE",
"157 -8 OFFCURVE",
"259 -8 CURVE SMOOTH"
);
},
{
closed = 1;
nodes = (
"166 611 LINE",
"408 611 LINE",
"408 376 OFFCURVE",
"337 306 OFFCURVE",
"166 306 CURVE"
);
}
);
width = 567;
}
);
unicode = A804;
},
{
glyphname = uniA805;
production = uniA805;
lastChange = "2017-09-15 12:55:41 +0000";
layers = (
{
layerId = UUID0;
paths = (
{
closed = 1;
nodes = (
"514 0 LINE",
"514 611 LINE",
"610 611 LINE",
"610 679 LINE",
"-17 679 LINE",
"-17 611 LINE",
"438 611 LINE",
"438 482 LINE",
"396 510 OFFCURVE",
"345 530 OFFCURVE",
"281 530 CURVE SMOOTH",
"142 530 OFFCURVE",
"59 460 OFFCURVE",
"59 333 CURVE SMOOTH",
"59 203 OFFCURVE",
"137 136 OFFCURVE",
"283 136 CURVE SMOOTH",
"348 136 OFFCURVE",
"401 158 OFFCURVE",
"438 185 CURVE",
"438 0 LINE"
);
},
{
closed = 1;
nodes = (
"171 -9 OFFCURVE",
"194 12 OFFCURVE",
"194 49 CURVE SMOOTH",
"194 85 OFFCURVE",
"171 105 OFFCURVE",
"135 105 CURVE SMOOTH",
"98 105 OFFCURVE",
"76 85 OFFCURVE",
"76 49 CURVE SMOOTH",
"76 12 OFFCURVE",
"98 -9 OFFCURVE",
"135 -9 CURVE SMOOTH"
);
},
{
closed = 1;
nodes = (
"191 208 OFFCURVE",
"141 249 OFFCURVE",
"141 333 CURVE SMOOTH",
"141 416 OFFCURVE",
"192 459 OFFCURVE",
"291 459 CURVE SMOOTH",
"355 459 OFFCURVE",
"404 435 OFFCURVE",
"438 411 CURVE",
"438 269 LINE",
"396 232 OFFCURVE",
"350 208 OFFCURVE",
"285 208 CURVE SMOOTH"
);
}
);
width = 597;
}
);
unicode = A805;
},
{
glyphname = uniA806;
production = uniA806;
lastChange = "2017-09-15 12:55:41 +0000";
layers = (
{
layerId = UUID0;
paths = (
{
closed = 1;
nodes = (
"-209 878 LINE",
"-95 755 LINE",
"-42 805 LINE",
"-210 967 LINE",
"-368 805 LINE",
"-314 755 LINE"
);
}
);
width = 0;
}
);
unicode = A806;
},
{
glyphname = uniA807;
production = uniA807;
lastChange = "2017-09-15 12:55:41 +0000";
layers = (
{
layerId = UUID0;
paths = (
{
closed = 1;
nodes = (
"827 0 LINE",
"827 611 LINE",
"902 611 LINE",
"902 679 LINE",
"-17 679 LINE",
"-17 611 LINE",
"87 611 LINE",
"87 95 LINE",
"159 62 LINE",
"391 331 OFFCURVE",
"596 456 OFFCURVE",
"748 523 CURVE",
"751 522 LINE",
"751 0 LINE"
);
},
{
closed = 1;
nodes = (
"480 0 LINE",
"480 621 LINE",
"405 621 LINE",
"405 0 LINE"
);
},
{
closed = 1;
nodes = (
"164 190 LINE",
"164 611 LINE",
"753 611 LINE",
"577 527 OFFCURVE",
"366 403 OFFCURVE",
"168 189 CURVE"
);
}
);
width = 896;
}
);
unicode = A807;
},
{
glyphname = uniA808;
production = uniA808;
lastChange = "2017-09-15 12:55:41 +0000";
layers = (
{
layerId = UUID0;
paths = (
{
closed = 1;
nodes = (
"886 0 LINE",
"886 611 LINE",
"971 611 LINE",
"971 679 LINE",
"-17 679 LINE",
"-17 611 LINE",
"68 611 LINE",
"68 236 LINE",
"147 204 LINE",
"224 327 OFFCURVE",
"318 446 OFFCURVE",
"427 545 CURVE",
"430 544 LINE",
"430 236 LINE",
"510 204 LINE",
"591 334 OFFCURVE",
"691 458 OFFCURVE",
"807 560 CURVE",
"810 558 LINE",
"810 0 LINE"
);
},
{
closed = 1;
nodes = (
"144 341 LINE",
"144 611 LINE",
"400 611 LINE",
"299 526 OFFCURVE",
"225 447 OFFCURVE",
"148 340 CURVE"
);
},
{
closed = 1;
nodes = (
"507 341 LINE",
"507 611 LINE",
"762 611 LINE",
"661 526 OFFCURVE",
"588 447 OFFCURVE",
"511 340 CURVE"
);
}
);
width = 962;
}
);
unicode = A808;
},
{
glyphname = uniA809;
production = uniA809;
lastChange = "2017-09-15 12:55:41 +0000";
layers = (
{
layerId = UUID0;
paths = (
{
closed = 1;
nodes = (
"579 0 LINE",
"579 611 LINE",
"673 611 LINE",
"673 679 LINE",
"-17 679 LINE",
"-17 611 LINE",
"162 611 LINE",
"197 577 OFFCURVE",
"237 523 OFFCURVE",
"269 464 CURVE",
"110 423 OFFCURVE",
"56 358 OFFCURVE",
"56 288 CURVE SMOOTH",
"56 188 OFFCURVE",
"129 128 OFFCURVE",
"214 128 CURVE SMOOTH",
"303 128 OFFCURVE",
"381 192 OFFCURVE",
"381 316 CURVE SMOOTH",
"381 431 OFFCURVE",
"312 537 OFFCURVE",
"252 611 CURVE",
"503 611 LINE",
"503 0 LINE"
);
},
{
closed = 1;
nodes = (
"167 196 OFFCURVE",
"134 225 OFFCURVE",
"134 276 CURVE SMOOTH",
"134 319 OFFCURVE",
"165 370 OFFCURVE",
"293 398 CURVE",
"300 370 OFFCURVE",
"304 342 OFFCURVE",
"304 314 CURVE SMOOTH",
"304 232 OFFCURVE",
"248 196 OFFCURVE",
"207 196 CURVE SMOOTH"
);
}
);
width = 660;
}
);
unicode = A809;
},
{
glyphname = uniA80A;
production = uniA80A;
lastChange = "2017-09-15 12:55:41 +0000";
layers = (
{
layerId = UUID0;
paths = (
{
closed = 1;
nodes = (
"526 0 LINE",
"526 611 LINE",
"623 611 LINE",
"623 679 LINE",
"-17 679 LINE",
"-17 611 LINE",
"450 611 LINE",
"450 555 LINE",
"429 555 LINE SMOOTH",
"274 555 OFFCURVE",
"175 532 OFFCURVE",
"76 433 CURVE",
"103 383 OFFCURVE",
"163 337 OFFCURVE",
"221 311 CURVE",
"158 292 OFFCURVE",
"84 246 OFFCURVE",
"49 202 CURVE",
"132 102 OFFCURVE",
"243 57 OFFCURVE",
"434 57 CURVE SMOOTH",
"450 57 LINE",
"450 0 LINE"
);
},
{
closed = 1;
nodes = (
"269 128 OFFCURVE",
"189 157 OFFCURVE",
"141 199 CURVE",
"201 244 OFFCURVE",
"264 272 OFFCURVE",
"379 272 CURVE SMOOTH",
"406 272 OFFCURVE",
"428 270 OFFCURVE",
"450 269 CURVE",
"450 129 LINE",
"434 128 OFFCURVE",
"420 128 OFFCURVE",
"405 128 CURVE SMOOTH"
);
},
{
closed = 1;
nodes = (
"271 343 OFFCURVE",
"217 380 OFFCURVE",
"173 420 CURVE",
"227 466 OFFCURVE",
"281 486 OFFCURVE",
"396 486 CURVE SMOOTH",
"413 486 OFFCURVE",
"431 486 OFFCURVE",
"450 485 CURVE",
"450 344 LINE",
"433 343 OFFCURVE",
"411 343 OFFCURVE",
"378 343 CURVE SMOOTH"
);
}
);
width = 613;
}
);
unicode = A80A;
},
{
glyphname = uniA80B;
production = uniA80B;
lastChange = "2017-09-15 12:55:41 +0000";
layers = (
{
layerId = UUID0;
paths = (
{
closed = 1;
nodes = (
"-91 747 OFFCURVE",
"-37 792 OFFCURVE",
"-37 855 CURVE SMOOTH",
"-37 919 OFFCURVE",
"-91 963 OFFCURVE",
"-154 963 CURVE SMOOTH",
"-216 963 OFFCURVE",
"-269 919 OFFCURVE",
"-269 855 CURVE SMOOTH",
"-269 792 OFFCURVE",
"-216 747 OFFCURVE",
"-154 747 CURVE SMOOTH"
);
},
{
closed = 1;
nodes = (
"-182 808 OFFCURVE",
"-204 829 OFFCURVE",
"-204 855 CURVE SMOOTH",
"-204 881 OFFCURVE",
"-182 902 OFFCURVE",
"-155 902 CURVE SMOOTH",
"-125 902 OFFCURVE",
"-104 881 OFFCURVE",
"-104 855 CURVE SMOOTH",
"-104 829 OFFCURVE",
"-125 808 OFFCURVE",
"-155 808 CURVE SMOOTH"
);
}
);
width = 0;
}
);
unicode = A80B;
},
{
glyphname = uniA80C;
production = uniA80C;
lastChange = "2017-09-15 12:55:41 +0000";
layers = (
{
layerId = UUID0;
paths = (
{
closed = 1;
nodes = (
"516 0 LINE",
"516 611 LINE",
"613 611 LINE",
"613 679 LINE",
"-17 679 LINE",
"-17 611 LINE",
"440 611 LINE",
"440 515 LINE",
"419 515 LINE SMOOTH",
"243 515 OFFCURVE",
"144 448 OFFCURVE",
"45 349 CURVE",
"141 212 OFFCURVE",
"273 164 OFFCURVE",
"440 158 CURVE",
"440 0 LINE"
);
},
{
closed = 1;
nodes = (
"304 233 OFFCURVE",
"211 269 OFFCURVE",
"142 339 CURVE",
"193 384 OFFCURVE",
"261 444 OFFCURVE",
"386 444 CURVE SMOOTH",
"403 444 OFFCURVE",
"421 444 OFFCURVE",
"440 443 CURVE",
"440 233 LINE",
"424 233 LINE SMOOTH"
);
}
);
width = 603;
}
);
unicode = A80C;
},
{
glyphname = uniA80D;
production = uniA80D;
lastChange = "2017-09-15 12:55:41 +0000";
layers = (
{
layerId = UUID0;
paths = (
{
closed = 1;
nodes = (
"300 -27 OFFCURVE",
"372 50 OFFCURVE",
"426 91 CURVE",
"426 46 LINE SMOOTH",
"426 -11 OFFCURVE",
"433 -82 OFFCURVE",
"532 -82 CURVE SMOOTH",
"621 -82 OFFCURVE",
"693 17 OFFCURVE",
"693 80 CURVE SMOOTH",
"693 149 OFFCURVE",
"648 195 OFFCURVE",
"550 195 CURVE SMOOTH",
"534 195 OFFCURVE",
"517 192 OFFCURVE",
"500 188 CURVE",
"500 457 LINE",
"416 490 LINE",
"318 421 OFFCURVE",
"267 384 OFFCURVE",
"168 275 CURVE",
"164 276 LINE",
"164 611 LINE",
"747 611 LINE",
"747 679 LINE",
"-17 679 LINE",
"-17 611 LINE",
"87 611 LINE",
"87 176 LINE",
"167 143 LINE",
"267 304 OFFCURVE",
"381 378 OFFCURVE",
"423 405 CURVE",
"426 404 LINE",
"426 166 LINE",
"340 119 OFFCURVE",
"239 23 OFFCURVE",
"191 -122 CURVE",
"259 -147 LINE"
);
},
{
closed = 1;
nodes = (
"504 -12 OFFCURVE",
"500 7 OFFCURVE",
"500 44 CURVE SMOOTH",
"500 126 LINE",
"517 131 OFFCURVE",
"533 133 OFFCURVE",
"548 133 CURVE SMOOTH",
"600 133 OFFCURVE",
"617 106 OFFCURVE",
"617 79 CURVE SMOOTH",
"617 35 OFFCURVE",
"580 -12 OFFCURVE",
"533 -12 CURVE SMOOTH"
);
}
);
width = 735;
}
);
unicode = A80D;
},
{
glyphname = uniA80E;
production = uniA80E;
lastChange = "2017-09-15 12:55:41 +0000";
layers = (
{
layerId = UUID0;
paths = (
{
closed = 1;
nodes = (
"672 0 LINE",
"672 611 LINE",
"760 611 LINE",
"760 679 LINE",
"-13 679 LINE",
"-13 611 LINE",
"165 611 LINE",
"103 541 OFFCURVE",
"42 448 OFFCURVE",
"42 331 CURVE SMOOTH",
"42 136 OFFCURVE",
"177 81 OFFCURVE",
"268 81 CURVE SMOOTH",
"375 81 OFFCURVE",
"472 133 OFFCURVE",
"472 255 CURVE SMOOTH",
"472 298 OFFCURVE",
"454 338 OFFCURVE",
"424 358 CURVE",
"425 361 LINE",
"596 380 LINE",
"596 0 LINE"
);
},
{
closed = 1;
nodes = (
"205 147 OFFCURVE",
"117 185 OFFCURVE",
"117 331 CURVE SMOOTH",
"117 453 OFFCURVE",
"190 540 OFFCURVE",
"260 611 CURVE",
"596 611 LINE",
"596 450 LINE",
"304 417 LINE",
"300 348 LINE",
"347 347 OFFCURVE",
"395 331 OFFCURVE",
"395 256 CURVE SMOOTH",
"395 186 OFFCURVE",
"341 147 OFFCURVE",
"273 147 CURVE SMOOTH"
);
}
);
width = 749;
}
);
unicode = A80E;
},
{
glyphname = uniA80F;
production = uniA80F;
lastChange = "2017-09-15 12:55:41 +0000";
layers = (
{
layerId = UUID0;
paths = (
{
closed = 1;
nodes = (
"596 69 OFFCURVE",
"729 202 OFFCURVE",
"729 348 CURVE SMOOTH",
"729 410 OFFCURVE",
"712 470 OFFCURVE",
"662 518 CURVE",
"612 469 LINE",
"643 435 OFFCURVE",
"654 395 OFFCURVE",
"654 352 CURVE SMOOTH",
"654 261 OFFCURVE",
"598 173 OFFCURVE",
"484 143 CURVE",
"481 145 LINE",
"481 487 LINE",
"397 520 LINE",
"282 421 OFFCURVE",
"238 370 OFFCURVE",
"168 264 CURVE",
"164 265 LINE",
"164 611 LINE",
"943 611 LINE",
"943 679 LINE",
"-17 679 LINE",
"-17 611 LINE",
"87 611 LINE",
"87 156 LINE",
"167 126 LINE",
"266 300 OFFCURVE",
"351 391 OFFCURVE",
"404 435 CURVE",
"407 434 LINE",
"407 63 LINE"
);
},
{
closed = 1;
nodes = (
"817 99 OFFCURVE",
"881 217 OFFCURVE",
"881 332 CURVE SMOOTH",
"881 394 OFFCURVE",
"863 464 OFFCURVE",
"818 522 CURVE",
"764 481 LINE",
"795 434 OFFCURVE",
"809 385 OFFCURVE",
"809 335 CURVE SMOOTH",
"809 242 OFFCURVE",
"757 146 OFFCURVE",
"643 88 CURVE",
"676 31 LINE"
);
}
);
width = 937;
}
);
unicode = A80F;
},
{
glyphname = uniA810;
production = uniA810;
lastChange = "2017-09-15 12:55:41 +0000";
layers = (
{
layerId = UUID0;
paths = (
{
closed = 1;
nodes = (
"382 -6 OFFCURVE",
"451 58 OFFCURVE",
"451 158 CURVE SMOOTH",
"451 176 OFFCURVE",
"450 193 OFFCURVE",
"447 212 CURVE",
"369 201 LINE",
"372 188 OFFCURVE",
"373 175 OFFCURVE",
"373 163 CURVE SMOOTH",
"373 83 OFFCURVE",
"303 61 OFFCURVE",
"259 61 CURVE SMOOTH",
"184 61 OFFCURVE",
"146 103 OFFCURVE",
"146 165 CURVE SMOOTH",
"146 224 OFFCURVE",
"183 256 OFFCURVE",
"289 303 CURVE SMOOTH",
"384 345 OFFCURVE",
"449 402 OFFCURVE",
"449 495 CURVE SMOOTH",
"449 540 OFFCURVE",
"433 582 OFFCURVE",
"401 611 CURVE",
"557 611 LINE",
"557 679 LINE",
"-17 679 LINE",
"-17 611 LINE",
"137 611 LINE",
"101 580 OFFCURVE",
"83 536 OFFCURVE",
"83 494 CURVE SMOOTH",
"83 469 OFFCURVE",
"88 445 OFFCURVE",
"96 424 CURVE",
"169 446 LINE",
"163 464 OFFCURVE",
"160 480 OFFCURVE",
"160 496 CURVE SMOOTH",
"160 555 OFFCURVE",
"202 602 OFFCURVE",
"273 602 CURVE SMOOTH",
"337 602 OFFCURVE",
"376 561 OFFCURVE",
"376 501 CURVE SMOOTH",
"376 439 OFFCURVE",
"322 395 OFFCURVE",
"251 362 CURVE SMOOTH",
"139 310 OFFCURVE",
"68 261 OFFCURVE",
"68 167 CURVE SMOOTH",
"68 79 OFFCURVE",
"129 -6 OFFCURVE",
"259 -6 CURVE SMOOTH"
);
}
);
width = 543;
}
);
unicode = A810;
},
{
glyphname = uniA811;
production = uniA811;
lastChange = "2017-09-15 12:55:41 +0000";
layers = (
{
layerId = UUID0;
paths = (
{
closed = 1;
nodes = (
"309 0 OFFCURVE",
"473 169 OFFCURVE",
"473 316 CURVE SMOOTH",
"473 415 OFFCURVE",
"412 478 OFFCURVE",
"321 478 CURVE SMOOTH",
"293 478 OFFCURVE",
"263 471 OFFCURVE",
"238 459 CURVE",
"268 392 LINE",
"280 400 OFFCURVE",
"303 408 OFFCURVE",
"321 408 CURVE SMOOTH",
"371 408 OFFCURVE",
"397 373 OFFCURVE",
"397 315 CURVE SMOOTH",
"397 209 OFFCURVE",
"285 91 OFFCURVE",
"147 73 CURVE",
"144 75 LINE",
"144 611 LINE",
"536 611 LINE",
"536 679 LINE",
"-17 679 LINE",
"-17 611 LINE",
"68 611 LINE",
"68 3 LINE",
"76 -5 LINE"
);
}
);
width = 526;
}
);
unicode = A811;
},
{
glyphname = uniA812;
production = uniA812;
lastChange = "2017-09-15 12:55:41 +0000";
layers = (
{
layerId = UUID0;
paths = (
{
closed = 1;
nodes = (
"579 -8 OFFCURVE",
"712 112 OFFCURVE",
"712 284 CURVE SMOOTH",
"712 342 OFFCURVE",
"696 413 OFFCURVE",
"665 473 CURVE",
"571 465 OFFCURVE",
"490 431 OFFCURVE",
"427 360 CURVE",
"423 361 LINE",
"423 611 LINE",
"776 611 LINE",
"776 679 LINE",
"-7 679 LINE",
"-7 611 LINE",
"346 611 LINE",
"346 259 LINE",
"420 227 LINE",
"464 318 OFFCURVE",
"519 373 OFFCURVE",
"618 397 CURVE",
"631 360 OFFCURVE",
"637 321 OFFCURVE",
"637 289 CURVE SMOOTH",
"637 149 OFFCURVE",
"532 68 OFFCURVE",
"392 68 CURVE SMOOTH",
"242 68 OFFCURVE",
"132 144 OFFCURVE",
"132 280 CURVE SMOOTH",
"132 363 OFFCURVE",
"170 408 OFFCURVE",
"207 447 CURVE",
"145 497 LINE",
"112 459 OFFCURVE",
"50 391 OFFCURVE",
"50 282 CURVE SMOOTH",
"50 100 OFFCURVE",
"200 -8 OFFCURVE",
"390 -8 CURVE SMOOTH"
);
}
);
width = 769;
}
);
unicode = A812;
},
{
glyphname = uniA813;
production = uniA813;
lastChange = "2017-09-15 12:55:41 +0000";
layers = (
{
layerId = UUID0;
paths = (
{
closed = 1;
nodes = (
"346 5 OFFCURVE",
"498 157 OFFCURVE",
"498 303 CURVE SMOOTH",
"498 402 OFFCURVE",
"437 465 OFFCURVE",
"346 465 CURVE SMOOTH",
"283 465 OFFCURVE",
"210 428 OFFCURVE",
"210 345 CURVE SMOOTH",
"210 269 OFFCURVE",
"266 240 OFFCURVE",
"304 232 CURVE",
"330 301 LINE",
"317 304 OFFCURVE",
"285 311 OFFCURVE",
"285 348 CURVE SMOOTH",
"285 381 OFFCURVE",
"311 397 OFFCURVE",
"342 397 CURVE SMOOTH",
"392 397 OFFCURVE",
"420 365 OFFCURVE",
"420 302 CURVE SMOOTH",
"420 196 OFFCURVE",
"304 86 OFFCURVE",
"152 78 CURVE",
"149 80 LINE",
"149 611 LINE",
"567 611 LINE",
"567 679 LINE",
"-17 679 LINE",
"-17 611 LINE",
"73 611 LINE",
"73 12 LINE",
"86 0 LINE"
);
}
);
width = 551;
}
);
unicode = A813;
},
{
glyphname = uniA814;
production = uniA814;
lastChange = "2017-09-15 12:55:41 +0000";
layers = (
{
layerId = UUID0;
paths = (
{
closed = 1;
nodes = (
"165 55 OFFCURVE",
"194 123 OFFCURVE",
"194 194 CURVE SMOOTH",
"194 237 OFFCURVE",
"181 281 OFFCURVE",
"155 314 CURVE",
"157 317 LINE",
"185 305 OFFCURVE",
"221 300 OFFCURVE",
"245 300 CURVE SMOOTH",
"363 300 OFFCURVE",
"424 332 OFFCURVE",
"493 383 CURVE",
"454 445 LINE",
"402 406 OFFCURVE",
"338 370 OFFCURVE",
"245 370 CURVE SMOOTH",
"200 370 OFFCURVE",
"139 382 OFFCURVE",
"78 414 CURVE",
"38 352 LINE",
"94 304 OFFCURVE",
"121 258 OFFCURVE",
"121 194 CURVE SMOOTH",
"121 141 OFFCURVE",
"95 93 OFFCURVE",
"34 37 CURVE",
"91 -15 LINE"
);
},
{
closed = 1;
nodes = (
"509 0 LINE",
"509 621 LINE",
"434 621 LINE",
"434 0 LINE"
);
},
{
closed = 1;
nodes = (
"577 611 LINE",
"577 679 LINE",
"-17 679 LINE",
"-17 611 LINE"
);
}
);
width = 572;
}
);
unicode = A814;
},
{
glyphname = uniA815;
production = uniA815;
lastChange = "2017-09-15 12:55:41 +0000";
layers = (
{
layerId = UUID0;
paths = (
{
closed = 1;
nodes = (
"847 0 LINE",
"847 611 LINE",
"932 611 LINE",
"932 679 LINE",
"-17 679 LINE",
"-17 611 LINE",
"726 611 LINE",
"627 523 OFFCURVE",
"564 435 OFFCURVE",
"493 330 CURVE",
"489 331 LINE",
"489 499 LINE",
"419 529 LINE",
"346 450 OFFCURVE",
"297 372 OFFCURVE",
"211 271 CURVE SMOOTH",
"181 235 OFFCURVE",
"164 221 OFFCURVE",
"141 221 CURVE SMOOTH",
"122 221 OFFCURVE",
"110 232 OFFCURVE",
"97 258 CURVE",
"31 212 LINE",
"61 158 OFFCURVE",
"96 142 OFFCURVE",
"136 142 CURVE SMOOTH",
"195 142 OFFCURVE",
"236 178 OFFCURVE",
"274 226 CURVE SMOOTH",
"330 296 OFFCURVE",
"374 358 OFFCURVE",
"414 411 CURVE",
"414 216 LINE",
"495 184 LINE",
"572 325 OFFCURVE",
"659 455 OFFCURVE",
"769 559 CURVE",
"772 558 LINE",
"772 0 LINE"
);
}
);
width = 925;
}
);
unicode = A815;
},
{
glyphname = uniA816;
production = uniA816;
lastChange = "2017-09-15 12:55:41 +0000";
layers = (
{
layerId = UUID0;
paths = (
{
closed = 1;
nodes = (
"588 -164 OFFCURVE",
"615 -155 OFFCURVE",
"646 -132 CURVE",
"609 -67 LINE",
"592 -78 OFFCURVE",
"570 -89 OFFCURVE",
"546 -89 CURVE SMOOTH",
"508 -89 OFFCURVE",
"500 -60 OFFCURVE",
"500 -19 CURVE SMOOTH",
"500 457 LINE",
"416 490 LINE",
"318 421 OFFCURVE",
"267 384 OFFCURVE",
"168 275 CURVE",
"164 276 LINE",
"164 611 LINE",
"687 611 LINE",
"687 679 LINE",
"-17 679 LINE",
"-17 611 LINE",
"87 611 LINE",
"87 176 LINE",
"167 143 LINE",
"253 272 OFFCURVE",
"338 348 OFFCURVE",
"423 406 CURVE",
"426 404 LINE",
"426 -22 LINE SMOOTH",
"426 -87 OFFCURVE",
"446 -164 OFFCURVE",
"548 -164 CURVE SMOOTH"
);
}
);
width = 674;
}
);
unicode = A816;
},
{
glyphname = uniA817;
production = uniA817;
lastChange = "2017-09-15 12:55:41 +0000";
layers = (
{
layerId = UUID0;
paths = (
{
closed = 1;
nodes = (
"724 0 LINE",
"724 611 LINE",
"809 611 LINE",
"809 679 LINE",
"-17 679 LINE",
"-17 611 LINE",
"38 611 LINE",
"43 482 OFFCURVE",
"92 393 OFFCURVE",
"218 393 CURVE SMOOTH",
"244 393 OFFCURVE",
"268 399 OFFCURVE",
"290 409 CURVE",
"290 212 LINE",
"377 185 LINE",
"482 374 OFFCURVE",
"553 438 OFFCURVE",
"645 518 CURVE",
"648 517 LINE",
"648 0 LINE"
);
},
{
closed = 1;
nodes = (
"367 314 LINE",
"367 499 LINE",
"358 503 LINE",
"303 465 OFFCURVE",
"260 462 OFFCURVE",
"227 462 CURVE SMOOTH",
"143 462 OFFCURVE",
"116 523 OFFCURVE",
"112 611 CURVE",
"649 611 LINE",
"540 518 OFFCURVE",
"464 449 OFFCURVE",
"371 313 CURVE"
);
}
);
width = 806;
}
);
unicode = A817;
},
{
glyphname = uniA818;
production = uniA818;
lastChange = "2017-09-15 12:55:41 +0000";
layers = (
{
layerId = UUID0;
paths = (
{
closed = 1;
nodes = (
"541 0 LINE",
"541 611 LINE",
"637 611 LINE",
"637 679 LINE",
"-17 679 LINE",
"-17 611 LINE",
"306 611 LINE",
"174 543 OFFCURVE",
"44 401 OFFCURVE",
"44 249 CURVE SMOOTH",
"44 143 OFFCURVE",
"120 83 OFFCURVE",
"199 83 CURVE SMOOTH",
"295 83 OFFCURVE",
"349 154 OFFCURVE",
"349 230 CURVE SMOOTH",
"349 306 OFFCURVE",
"313 375 OFFCURVE",
"190 426 CURVE",
"255 516 OFFCURVE",
"367 593 OFFCURVE",
"456 593 CURVE SMOOTH",
"459 593 OFFCURVE",
"462 593 OFFCURVE",
"466 592 CURVE",
"466 0 LINE"
);
},
{
closed = 1;
nodes = (
"157 153 OFFCURVE",
"122 193 OFFCURVE",
"122 245 CURVE SMOOTH",
"122 286 OFFCURVE",
"134 324 OFFCURVE",
"156 364 CURVE",
"242 328 OFFCURVE",
"271 275 OFFCURVE",
"271 225 CURVE SMOOTH",
"271 188 OFFCURVE",
"245 153 OFFCURVE",
"200 153 CURVE SMOOTH"
);
}
);
width = 630;
}
);
unicode = A818;
},
{
glyphname = uniA819;
production = uniA819;
lastChange = "2017-09-15 12:55:41 +0000";
layers = (
{
layerId = UUID0;
paths = (
{
closed = 1;
nodes = (
"684 0 LINE",
"684 611 LINE",
"769 611 LINE",
"769 679 LINE",
"-17 679 LINE",
"-17 611 LINE",
"68 611 LINE",
"68 91 LINE",
"147 59 LINE",
"283 268 OFFCURVE",
"462 427 OFFCURVE",
"605 518 CURVE",
"608 517 LINE",
"608 0 LINE"
);
},
{
closed = 1;
nodes = (
"144 197 LINE",
"144 611 LINE",
"610 611 LINE",
"450 508 OFFCURVE",
"268 364 OFFCURVE",
"148 196 CURVE"
);
}
);
width = 750;
}
);
unicode = A819;
},
{
glyphname = uniA81A;
production = uniA81A;
lastChange = "2017-09-15 12:55:41 +0000";
layers = (
{
layerId = UUID0;
paths = (
{
closed = 1;
nodes = (
"684 0 LINE",
"684 167 LINE",
"727 117 OFFCURVE",
"790 72 OFFCURVE",
"878 64 CURVE",
"889 135 LINE",
"812 143 OFFCURVE",
"742 182 OFFCURVE",
"715 214 CURVE",
"716 217 LINE",
"798 219 OFFCURVE",
"892 238 OFFCURVE",
"892 335 CURVE SMOOTH",
"892 419 OFFCURVE",
"832 447 OFFCURVE",
"769 447 CURVE SMOOTH",
"736 447 OFFCURVE",
"709 442 OFFCURVE",
"684 435 CURVE",
"684 611 LINE",
"920 611 LINE",
"920 679 LINE",
"-17 679 LINE",
"-17 611 LINE",
"68 611 LINE",
"68 95 LINE",
"147 63 LINE",
"274 268 OFFCURVE",
"443 417 OFFCURVE",
"605 518 CURVE",
"608 517 LINE",
"608 0 LINE"
);
},
{
closed = 1;
nodes = (
"144 197 LINE",
"144 611 LINE",
"610 611 LINE",
"450 508 OFFCURVE",
"268 364 OFFCURVE",
"148 196 CURVE"
);
},
{
closed = 1;
nodes = (
"684 371 LINE",
"711 381 OFFCURVE",
"737 386 OFFCURVE",
"765 386 CURVE SMOOTH",
"799 386 OFFCURVE",
"821 369 OFFCURVE",
"821 335 CURVE SMOOTH",
"821 288 OFFCURVE",
"751 272 OFFCURVE",
"684 270 CURVE"
);
}
);
width = 908;
}
);
unicode = A81A;
},
{
glyphname = uniA81B;
production = uniA81B;
lastChange = "2017-09-15 12:55:41 +0000";
layers = (
{
layerId = UUID0;
paths = (
{
closed = 1;
nodes = (
"514 0 LINE",
"514 611 LINE",
"610 611 LINE",
"610 679 LINE",
"-17 679 LINE",
"-17 611 LINE",
"438 611 LINE",
"438 474 LINE",
"396 500 OFFCURVE",
"345 519 OFFCURVE",
"281 519 CURVE SMOOTH",
"142 519 OFFCURVE",
"59 448 OFFCURVE",
"59 322 CURVE SMOOTH",
"59 192 OFFCURVE",
"141 122 OFFCURVE",
"278 122 CURVE SMOOTH",
"343 122 OFFCURVE",
"395 145 OFFCURVE",
"438 176 CURVE",
"438 0 LINE"
);
},
{
closed = 1;
nodes = (
"186 196 OFFCURVE",
"141 238 OFFCURVE",
"141 322 CURVE SMOOTH",
"141 405 OFFCURVE",
"190 447 OFFCURVE",
"289 447 CURVE SMOOTH",
"356 447 OFFCURVE",
"401 423 OFFCURVE",
"438 397 CURVE",
"438 260 LINE",
"397 222 OFFCURVE",
"344 196 OFFCURVE",
"280 196 CURVE SMOOTH"
);
}
);
width = 593;
}
);
unicode = A81B;
},
{
glyphname = uniA81C;
production = uniA81C;
lastChange = "2017-09-15 12:55:41 +0000";
layers = (
{
layerId = UUID0;
paths = (
{
closed = 1;
nodes = (
"628 0 LINE",
"628 611 LINE",
"724 611 LINE",
"724 679 LINE",
"-17 679 LINE",
"-17 611 LINE",
"393 611 LINE",
"323 575 OFFCURVE",
"254 518 OFFCURVE",
"204 450 CURVE",
"163 458 OFFCURVE",
"122 460 OFFCURVE",
"91 460 CURVE SMOOTH",
"62 460 OFFCURVE",
"41 458 OFFCURVE",
"35 458 CURVE",
"44 389 LINE",
"55 390 OFFCURVE",
"68 390 OFFCURVE",
"82 390 CURVE SMOOTH",
"106 390 OFFCURVE",
"135 389 OFFCURVE",
"164 385 CURVE",
"143 342 OFFCURVE",
"131 296 OFFCURVE",
"131 249 CURVE SMOOTH",
"131 143 OFFCURVE",
"207 83 OFFCURVE",
"286 83 CURVE SMOOTH",
"382 83 OFFCURVE",
"436 154 OFFCURVE",
"436 230 CURVE SMOOTH",
"436 306 OFFCURVE",
"397 377 OFFCURVE",
"274 428 CURVE",
"338 518 OFFCURVE",
"453 593 OFFCURVE",
"542 593 CURVE SMOOTH",
"545 593 OFFCURVE",
"548 593 OFFCURVE",
"552 592 CURVE",
"552 0 LINE"
);
},
{
closed = 1;
nodes = (
"243 153 OFFCURVE",
"209 193 OFFCURVE",
"209 245 CURVE SMOOTH",
"209 286 OFFCURVE",
"221 324 OFFCURVE",
"242 364 CURVE",
"329 328 OFFCURVE",
"358 275 OFFCURVE",
"358 225 CURVE SMOOTH",
"358 188 OFFCURVE",
"332 153 OFFCURVE",
"287 153 CURVE SMOOTH"
);
}
);
width = 716;
}
);
unicode = A81C;
},
{
glyphname = uniA81D;
production = uniA81D;
lastChange = "2017-09-15 12:55:41 +0000";
layers = (
{
layerId = UUID0;
paths = (
{
closed = 1;
nodes = (
"585 0 LINE",
"585 611 LINE",
"670 611 LINE",
"670 679 LINE",
"-17 679 LINE",
"-17 611 LINE",
"32 611 LINE",
"106 539 OFFCURVE",
"159 477 OFFCURVE",
"197 424 CURVE",
"108 356 OFFCURVE",
"70 302 OFFCURVE",
"70 238 CURVE SMOOTH",
"70 172 OFFCURVE",
"108 103 OFFCURVE",
"204 103 CURVE SMOOTH",
"289 103 OFFCURVE",
"346 164 OFFCURVE",
"346 236 CURVE SMOOTH",
"346 289 OFFCURVE",
"334 341 OFFCURVE",
"294 409 CURVE",
"348 446 OFFCURVE",
"419 489 OFFCURVE",
"509 541 CURVE",
"509 0 LINE"
);
},
{
closed = 1;
nodes = (
"164 172 OFFCURVE",
"144 205 OFFCURVE",
"144 238 CURVE SMOOTH",
"144 279 OFFCURVE",
"171 318 OFFCURVE",
"234 367 CURVE",
"262 315 OFFCURVE",
"274 275 OFFCURVE",
"274 243 CURVE SMOOTH",
"274 198 OFFCURVE",
"244 172 OFFCURVE",
"207 172 CURVE SMOOTH"
);
},
{
closed = 1;
nodes = (
"226 508 OFFCURVE",
"186 555 OFFCURVE",
"135 611 CURVE",
"490 611 LINE",
"394 555 OFFCURVE",
"317 508 OFFCURVE",
"256 467 CURVE"
);
}
);
width = 662;
}
);
unicode = A81D;
},
{
glyphname = uniA81E;
production = uniA81E;
lastChange = "2017-09-15 12:55:41 +0000";
layers = (
{
layerId = UUID0;
paths = (
{
closed = 1;
nodes = (
"575 0 LINE",
"575 611 LINE",
"660 611 LINE",
"660 679 LINE",
"-17 679 LINE",
"-17 611 LINE",
"501 611 LINE",
"496 559 LINE",
"499 558 LINE",
"499 0 LINE"
);
},
{
closed = 1;
nodes = (
"217 217 OFFCURVE",
"252 251 OFFCURVE",
"299 309 CURVE SMOOTH",
"393 425 OFFCURVE",
"458 541 OFFCURVE",
"581 629 CURVE",
"511 659 LINE",
"403 576 OFFCURVE",
"325 454 OFFCURVE",
"238 350 CURVE SMOOTH",
"205 310 OFFCURVE",
"190 299 OFFCURVE",
"165 299 CURVE SMOOTH",
"147 299 OFFCURVE",
"127 308 OFFCURVE",
"112 328 CURVE",
"55 272 LINE",
"93 227 OFFCURVE",
"120 217 OFFCURVE",
"159 217 CURVE SMOOTH"
);
}
);
width = 652;
}
);
unicode = A81E;
},
{
glyphname = uniA81F;
production = uniA81F;
lastChange = "2017-09-15 12:55:41 +0000";
layers = (
{
layerId = UUID0;
paths = (
{
closed = 1;
nodes = (
"575 0 LINE",
"575 611 LINE",
"660 611 LINE",
"660 679 LINE",
"-17 679 LINE",
"-17 611 LINE",
"453 611 LINE",
"370 537 OFFCURVE",
"297 450 OFFCURVE",
"227 365 CURVE SMOOTH",
"194 324 OFFCURVE",
"179 310 OFFCURVE",
"154 310 CURVE SMOOTH",
"136 310 OFFCURVE",
"118 318 OFFCURVE",
"99 340 CURVE",
"45 288 LINE",
"76 245 OFFCURVE",
"109 231 OFFCURVE",
"147 231 CURVE SMOOTH",
"206 231 OFFCURVE",
"241 266 OFFCURVE",
"288 323 CURVE SMOOTH",
"360 410 OFFCURVE",
"423 489 OFFCURVE",
"499 557 CURVE",
"499 0 LINE"
);
},
{
closed = 1;
nodes = (
"401 -14 LINE",
"362 10 OFFCURVE",
"337 44 OFFCURVE",
"337 99 CURVE SMOOTH",
"337 170 OFFCURVE",
"385 213 OFFCURVE",
"438 250 CURVE",
"401 301 LINE",
"340 258 OFFCURVE",
"267 194 OFFCURVE",
"267 95 CURVE SMOOTH",
"267 14 OFFCURVE",
"311 -42 OFFCURVE",
"357 -70 CURVE"
);
}
);
width = 652;
}
);
unicode = A81F;
},
{
glyphname = uniA820;
production = uniA820;
lastChange = "2017-09-15 12:55:41 +0000";
layers = (
{
layerId = UUID0;
paths = (
{
closed = 1;
nodes = (
"415 -89 OFFCURVE",
"528 70 OFFCURVE",
"528 258 CURVE SMOOTH",
"528 324 OFFCURVE",
"511 396 OFFCURVE",
"485 451 CURVE",
"353 440 OFFCURVE",
"235 370 OFFCURVE",
"168 275 CURVE",
"164 276 LINE",
"164 611 LINE",
"624 611 LINE",
"624 679 LINE",
"-17 679 LINE",
"-17 611 LINE",
"87 611 LINE",
"87 175 LINE",
"161 143 LINE",
"213 232 OFFCURVE",
"312 349 OFFCURVE",
"436 371 CURVE",
"446 337 OFFCURVE",
"453 299 OFFCURVE",
"453 265 CURVE SMOOTH",
"453 93 OFFCURVE",
"370 -10 OFFCURVE",
"235 -121 CURVE",
"287 -182 LINE"
);
}
);
width = 609;
}
);
unicode = A820;
},
{
glyphname = uniA821;
production = uniA821;
lastChange = "2017-09-15 12:55:41 +0000";
layers = (
{
layerId = UUID0;
paths = (
{
closed = 1;
nodes = (
"394 5 LINE",
"342 123 OFFCURVE",
"250 198 OFFCURVE",
"175 219 CURVE",
"176 223 LINE",
"252 228 OFFCURVE",
"319 264 OFFCURVE",
"352 316 CURVE",
"428 386 OFFCURVE",
"511 453 OFFCURVE",
"605 518 CURVE",
"608 517 LINE",
"608 0 LINE",
"684 0 LINE",
"684 611 LINE",
"769 611 LINE",
"769 679 LINE",
"-17 679 LINE",
"-17 611 LINE",
"610 611 LINE",
"519 544 OFFCURVE",
"437 482 OFFCURVE",
"371 426 CURVE",
"356 511 OFFCURVE",
"290 562 OFFCURVE",
"218 562 CURVE SMOOTH",
"155 562 OFFCURVE",
"86 539 OFFCURVE",
"34 495 CURVE",
"80 434 LINE",
"133 481 OFFCURVE",
"178 493 OFFCURVE",
"216 493 CURVE SMOOTH",
"265 493 OFFCURVE",
"299 454 OFFCURVE",
"299 393 CURVE SMOOTH",
"299 312 OFFCURVE",
"165 279 OFFCURVE",
"65 270 CURVE",
"65 196 LINE",
"139 179 OFFCURVE",
"259 130 OFFCURVE",
"320 -31 CURVE"
);
}
);
width = 762;
}
);
unicode = A821;
},
{
glyphname = uniA822;
production = uniA822;
lastChange = "2017-09-15 12:55:41 +0000";
layers = (
{
layerId = UUID0;
paths = (
{
closed = 1;
nodes = (
"714 0 LINE",
"714 611 LINE",
"799 611 LINE",
"799 679 LINE",
"-17 679 LINE",
"-17 611 LINE",
"68 611 LINE",
"68 95 LINE",
"147 63 LINE",
"274 268 OFFCURVE",
"474 417 OFFCURVE",
"635 518 CURVE",
"638 517 LINE",
"638 0 LINE"
);
},
{
closed = 1;
nodes = (
"568 -14 LINE",
"543 -8 OFFCURVE",
"465 19 OFFCURVE",
"465 103 CURVE SMOOTH",
"465 194 OFFCURVE",
"518 236 OFFCURVE",
"570 280 CURVE",
"535 326 LINE",
"493 295 OFFCURVE",
"394 219 OFFCURVE",
"394 102 CURVE SMOOTH",
"394 -23 OFFCURVE",
"499 -67 OFFCURVE",
"544 -82 CURVE"
);
},
{
closed = 1;
nodes = (
"144 197 LINE",
"144 611 LINE",
"640 611 LINE",
"481 508 OFFCURVE",
"268 364 OFFCURVE",
"148 196 CURVE"
);
}
);
width = 787;
}
);
unicode = A822;
},
{
glyphname = uniA823;
production = uniA823;
lastChange = "2017-09-15 12:55:41 +0000";
layers = (
{
layerId = UUID0;
paths = (
{
closed = 1;
nodes = (
"197 0 LINE",
"197 611 LINE",
"291 611 LINE",
"291 679 LINE",
"-17 679 LINE",
"-17 611 LINE",
"121 611 LINE",
"121 0 LINE"
);
}
);
width = 281;
}
);
unicode = A823;
},
{
glyphname = uniA824;
production = uniA824;
lastChange = "2017-09-15 12:55:41 +0000";
layers = (
{
layerId = UUID0;
paths = (
{
closed = 1;
nodes = (
"176 0 LINE",
"176 611 LINE",
"270 611 LINE",
"270 679 LINE",
"176 679 LINE",
"176 809 LINE SMOOTH",
"176 878 OFFCURVE",
"150 958 OFFCURVE",
"49 958 CURVE SMOOTH",
"-63 958 OFFCURVE",
"-131 877 OFFCURVE",
"-186 761 CURVE",
"-113 728 LINE",
"-71 816 OFFCURVE",
"-24 888 OFFCURVE",
"45 888 CURVE SMOOTH",
"89 888 OFFCURVE",
"100 850 OFFCURVE",
"100 809 CURVE SMOOTH",
"100 679 LINE",
"-17 679 LINE",
"-17 611 LINE",
"100 611 LINE",
"100 0 LINE"
);
}
);
width = 254;
}
);
unicode = A824;
},
{
glyphname = uniA825;
production = uniA825;
lastChange = "2017-09-15 12:55:41 +0000";
layers = (
{
layerId = UUID0;
paths = (
{
closed = 1;
nodes = (
"-70 -270 OFFCURVE",
"6 -219 OFFCURVE",
"6 -122 CURVE SMOOTH",
"6 -29 OFFCURVE",
"-56 7 OFFCURVE",
"-122 7 CURVE SMOOTH",
"-144 7 OFFCURVE",
"-173 3 OFFCURVE",
"-194 -3 CURVE",
"-174 -71 LINE",
"-160 -67 OFFCURVE",
"-140 -64 OFFCURVE",
"-125 -64 CURVE SMOOTH",
"-93 -64 OFFCURVE",
"-66 -76 OFFCURVE",
"-66 -122 CURVE SMOOTH",
"-66 -179 OFFCURVE",
"-122 -202 OFFCURVE",
"-248 -202 CURVE SMOOTH",
"-282 -202 OFFCURVE",
"-323 -199 OFFCURVE",
"-371 -189 CURVE",
"-390 -256 LINE",
"-339 -266 OFFCURVE",
"-292 -270 OFFCURVE",
"-248 -270 CURVE SMOOTH"
);
}
);
width = 0;
}
);
unicode = A825;
},
{
glyphname = uniA826;
production = uniA826;
lastChange = "2017-09-15 12:55:41 +0000";
layers = (
{
layerId = UUID0;
paths = (
{
closed = 1;
nodes = (
"-69 675 LINE",
"-135 821 OFFCURVE",
"-256 911 OFFCURVE",
"-380 950 CURVE",
"-403 888 LINE",
"-300 858 OFFCURVE",
"-199 785 OFFCURVE",
"-133 663 CURVE"
);
}
);
width = 0;
}
);
unicode = A826;
},
{
glyphname = uniA827;
production = uniA827;
lastChange = "2017-09-15 12:55:41 +0000";
layers = (
{
layerId = UUID0;
paths = (
{
closed = 1;
nodes = (
"176 0 LINE",
"176 611 LINE",
"270 611 LINE",
"270 679 LINE",
"-17 679 LINE",
"-17 611 LINE",
"100 611 LINE",
"100 0 LINE"
);
},
{
closed = 1;
nodes = (
"165 675 LINE",
"106 803 OFFCURVE",
"7 890 OFFCURVE",
"-101 935 CURVE",
"-130 871 LINE",
"-41 835 OFFCURVE",
"43 769 OFFCURVE",
"100 663 CURVE"
);
}
);
width = 262;
}
);
unicode = A827;
},
{
glyphname = uniA828;
production = uniA828;
lastChange = "2017-09-15 12:55:41 +0000";
layers = (
{
layerId = UUID0;
paths = (
{
closed = 1;
nodes = (
"257 264 OFFCURVE",
"311 308 OFFCURVE",
"311 371 CURVE SMOOTH",
"311 434 OFFCURVE",
"257 478 OFFCURVE",
"194 478 CURVE SMOOTH",
"133 478 OFFCURVE",
"80 434 OFFCURVE",
"80 371 CURVE SMOOTH",
"80 308 OFFCURVE",
"133 264 OFFCURVE",
"194 264 CURVE SMOOTH"
);
},
{
closed = 1;
nodes = (
"169 324 OFFCURVE",
"145 345 OFFCURVE",
"145 370 CURVE SMOOTH",
"145 396 OFFCURVE",
"169 416 OFFCURVE",
"193 416 CURVE SMOOTH",
"220 416 OFFCURVE",
"240 396 OFFCURVE",
"240 370 CURVE SMOOTH",
"240 345 OFFCURVE",
"220 324 OFFCURVE",
"193 324 CURVE SMOOTH"
);
}
);
width = 381;
}
);
unicode = A828;
},
{
glyphname = uniA829;
production = uniA829;
lastChange = "2017-09-15 12:55:41 +0000";
layers = (
{
layerId = UUID0;
paths = (
{
closed = 1;
nodes = (
"226 344 OFFCURVE",
"281 389 OFFCURVE",
"281 451 CURVE SMOOTH",
"281 515 OFFCURVE",
"226 559 OFFCURVE",
"164 559 CURVE SMOOTH",
"103 559 OFFCURVE",
"49 515 OFFCURVE",
"49 451 CURVE SMOOTH",
"49 389 OFFCURVE",
"103 344 OFFCURVE",
"164 344 CURVE SMOOTH"
);
},
{
closed = 1;
nodes = (
"226 72 OFFCURVE",
"281 116 OFFCURVE",
"281 179 CURVE SMOOTH",
"281 242 OFFCURVE",
"226 286 OFFCURVE",
"164 286 CURVE SMOOTH",
"103 286 OFFCURVE",
"49 242 OFFCURVE",
"49 179 CURVE SMOOTH",
"49 116 OFFCURVE",
"103 72 OFFCURVE",
"164 72 CURVE SMOOTH"
);
},
{
closed = 1;
nodes = (
"138 132 OFFCURVE",
"115 154 OFFCURVE",
"115 178 CURVE SMOOTH",
"115 204 OFFCURVE",
"138 224 OFFCURVE",
"163 224 CURVE SMOOTH",
"190 224 OFFCURVE",
"210 204 OFFCURVE",
"210 178 CURVE SMOOTH",
"210 154 OFFCURVE",
"190 132 OFFCURVE",
"163 132 CURVE SMOOTH"
);
},
{
closed = 1;
nodes = (
"138 405 OFFCURVE",
"115 426 OFFCURVE",
"115 450 CURVE SMOOTH",
"115 477 OFFCURVE",
"138 497 OFFCURVE",
"163 497 CURVE SMOOTH",
"190 497 OFFCURVE",
"210 477 OFFCURVE",
"210 450 CURVE SMOOTH",
"210 426 OFFCURVE",
"190 405 OFFCURVE",
"163 405 CURVE SMOOTH"
);
}
);
width = 331;
}
);
unicode = A829;
},
{
glyphname = uniA82A;
production = uniA82A;
lastChange = "2017-09-15 12:55:41 +0000";
layers = (
{
layerId = UUID0;
paths = (
{
closed = 1;
nodes = (
"519 344 OFFCURVE",
"574 389 OFFCURVE",
"574 451 CURVE SMOOTH",
"574 515 OFFCURVE",
"519 559 OFFCURVE",
"457 559 CURVE SMOOTH",
"396 559 OFFCURVE",
"342 515 OFFCURVE",
"342 451 CURVE SMOOTH",
"342 389 OFFCURVE",
"396 344 OFFCURVE",
"457 344 CURVE SMOOTH"
);
},
{
closed = 1;
nodes = (
"370 102 OFFCURVE",
"424 146 OFFCURVE",
"424 209 CURVE SMOOTH",
"424 273 OFFCURVE",
"370 316 OFFCURVE",
"307 316 CURVE SMOOTH",
"246 316 OFFCURVE",
"193 273 OFFCURVE",
"193 209 CURVE SMOOTH",
"193 146 OFFCURVE",
"246 102 OFFCURVE",
"307 102 CURVE SMOOTH"
);
},
{
closed = 1;
nodes = (
"282 163 OFFCURVE",
"259 184 OFFCURVE",
"259 208 CURVE SMOOTH",
"259 234 OFFCURVE",
"282 255 OFFCURVE",
"306 255 CURVE SMOOTH",
"333 255 OFFCURVE",
"353 234 OFFCURVE",
"353 208 CURVE SMOOTH",
"353 184 OFFCURVE",
"333 163 OFFCURVE",
"306 163 CURVE SMOOTH"
);
},
{
closed = 1;
nodes = (
"226 344 OFFCURVE",
"281 389 OFFCURVE",
"281 451 CURVE SMOOTH",
"281 515 OFFCURVE",
"226 559 OFFCURVE",
"164 559 CURVE SMOOTH",
"103 559 OFFCURVE",
"49 515 OFFCURVE",
"49 451 CURVE SMOOTH",
"49 389 OFFCURVE",
"103 344 OFFCURVE",
"164 344 CURVE SMOOTH"
);
},
{
closed = 1;
nodes = (
"138 405 OFFCURVE",
"115 426 OFFCURVE",
"115 450 CURVE SMOOTH",
"115 477 OFFCURVE",
"138 497 OFFCURVE",
"163 497 CURVE SMOOTH",
"190 497 OFFCURVE",
"210 477 OFFCURVE",
"210 450 CURVE SMOOTH",
"210 426 OFFCURVE",
"190 405 OFFCURVE",
"163 405 CURVE SMOOTH"
);
},
{
closed = 1;
nodes = (
"431 405 OFFCURVE",
"408 426 OFFCURVE",
"408 450 CURVE SMOOTH",
"408 477 OFFCURVE",
"431 497 OFFCURVE",
"456 497 CURVE SMOOTH",
"483 497 OFFCURVE",
"503 477 OFFCURVE",
"503 450 CURVE SMOOTH",
"503 426 OFFCURVE",
"483 405 OFFCURVE",
"456 405 CURVE SMOOTH"
);
}
);
width = 628;
}
);
unicode = A82A;
},
{
glyphname = uniA82B;
production = uniA82B;
lastChange = "2017-09-15 12:55:41 +0000";
layers = (
{
layerId = UUID0;
paths = (
{
closed = 1;
nodes = (
"528 351 OFFCURVE",
"583 396 OFFCURVE",
"583 459 CURVE SMOOTH",
"583 522 OFFCURVE",
"528 566 OFFCURVE",
"466 566 CURVE SMOOTH",
"405 566 OFFCURVE",
"351 522 OFFCURVE",
"351 459 CURVE SMOOTH",
"351 396 OFFCURVE",
"405 351 OFFCURVE",
"466 351 CURVE SMOOTH"
);
},
{
closed = 1;
nodes = (
"246 84 OFFCURVE",
"301 128 OFFCURVE",
"301 191 CURVE SMOOTH",
"301 255 OFFCURVE",
"246 298 OFFCURVE",
"184 298 CURVE SMOOTH",
"123 298 OFFCURVE",
"70 255 OFFCURVE",
"70 191 CURVE SMOOTH",
"70 128 OFFCURVE",
"123 84 OFFCURVE",
"184 84 CURVE SMOOTH"
);
},
{
closed = 1;
nodes = (
"159 144 OFFCURVE",
"135 166 OFFCURVE",
"135 190 CURVE SMOOTH",
"135 216 OFFCURVE",
"159 236 OFFCURVE",
"183 236 CURVE SMOOTH",
"210 236 OFFCURVE",
"230 216 OFFCURVE",
"230 190 CURVE SMOOTH",
"230 166 OFFCURVE",
"210 144 OFFCURVE",
"183 144 CURVE SMOOTH"
);
},
{
closed = 1;
nodes = (
"246 351 OFFCURVE",
"301 396 OFFCURVE",
"301 459 CURVE SMOOTH",
"301 522 OFFCURVE",
"246 566 OFFCURVE",
"184 566 CURVE SMOOTH",
"123 566 OFFCURVE",
"70 522 OFFCURVE",
"70 459 CURVE SMOOTH",
"70 396 OFFCURVE",
"123 351 OFFCURVE",
"184 351 CURVE SMOOTH"
);
},
{
closed = 1;
nodes = (
"159 412 OFFCURVE",
"135 433 OFFCURVE",
"135 458 CURVE SMOOTH",
"135 484 OFFCURVE",
"159 504 OFFCURVE",
"183 504 CURVE SMOOTH",
"210 504 OFFCURVE",
"230 484 OFFCURVE",
"230 458 CURVE SMOOTH",
"230 433 OFFCURVE",
"210 412 OFFCURVE",
"183 412 CURVE SMOOTH"
);
},
{
closed = 1;
nodes = (
"528 84 OFFCURVE",
"583 128 OFFCURVE",
"583 191 CURVE SMOOTH",
"583 255 OFFCURVE",
"528 298 OFFCURVE",
"466 298 CURVE SMOOTH",
"405 298 OFFCURVE",
"351 255 OFFCURVE",
"351 191 CURVE SMOOTH",
"351 128 OFFCURVE",
"405 84 OFFCURVE",
"466 84 CURVE SMOOTH"
);
},
{
closed = 1;
nodes = (
"440 144 OFFCURVE",
"417 166 OFFCURVE",
"417 190 CURVE SMOOTH",
"417 216 OFFCURVE",
"440 236 OFFCURVE",
"465 236 CURVE SMOOTH",
"492 236 OFFCURVE",
"512 216 OFFCURVE",
"512 190 CURVE SMOOTH",
"512 166 OFFCURVE",
"492 144 OFFCURVE",
"465 144 CURVE SMOOTH"
);
},
{
closed = 1;
nodes = (
"440 412 OFFCURVE",
"417 433 OFFCURVE",
"417 458 CURVE SMOOTH",
"417 484 OFFCURVE",
"440 504 OFFCURVE",
"465 504 CURVE SMOOTH",
"492 504 OFFCURVE",
"512 484 OFFCURVE",
"512 458 CURVE SMOOTH",
"512 433 OFFCURVE",
"492 412 OFFCURVE",
"465 412 CURVE SMOOTH"
);
}
);
width = 646;
}
);
unicode = A82B;
},
{
glyphname = uniA807uniA807;
production = uniA807uniA807;
lastChange = "2017-09-15 12:55:41 +0000";
layers = (
{
layerId = UUID0;
paths = (
{
closed = 1;
nodes = (
"786 -99 LINE",
"786 252 LINE",
"866 311 OFFCURVE",
"946 361 OFFCURVE",
"1024 404 CURVE",
"1027 403 LINE",
"1027 -99 LINE",
"1103 -99 LINE",
"1103 492 LINE",
"1029 492 LINE",
"945 443 OFFCURVE",
"864 395 OFFCURVE",
"786 341 CURVE",
"786 611 LINE",
"1212 611 LINE",
"1212 679 LINE",
"-17 679 LINE",
"-17 611 LINE",
"87 611 LINE",
"87 95 LINE",
"159 62 LINE",
"248 165 OFFCURVE",
"325 245 OFFCURVE",
"395 308 CURVE",
"395 -24 LINE",
"465 -58 LINE",
"542 40 OFFCURVE",
"625 123 OFFCURVE",
"711 193 CURVE",
"711 -99 LINE"
);
},
{
closed = 1;
nodes = (
"164 190 LINE",
"164 611 LINE",
"395 611 LINE",
"395 405 LINE",
"323 346 OFFCURVE",
"249 276 OFFCURVE",
"168 189 CURVE"
);
},
{
closed = 1;
nodes = (
"470 71 LINE",
"470 373 LINE",
"551 438 OFFCURVE",
"627 483 OFFCURVE",
"708 523 CURVE",
"711 522 LINE",
"711 288 LINE",
"630 227 OFFCURVE",
"551 156 OFFCURVE",
"474 70 CURVE"
);
},
{
closed = 1;
nodes = (
"470 611 LINE",
"713 611 LINE",
"627 566 OFFCURVE",
"548 520 OFFCURVE",
"470 463 CURVE"
);
}
);
width = 1200;
}
);
},
{
glyphname = uniA807uniA814;
production = uniA807uniA814;
lastChange = "2017-09-15 12:55:41 +0000";
layers = (
{
layerId = UUID0;
paths = (
{
closed = 1;
nodes = (
"433 -232 OFFCURVE",
"459 -188 OFFCURVE",
"459 -128 CURVE SMOOTH",
"459 -84 OFFCURVE",
"443 -41 OFFCURVE",
"417 -1 CURVE",
"419 2 LINE",
"451 -10 OFFCURVE",
"503 -13 OFFCURVE",
"538 -13 CURVE SMOOTH",
"610 -13 OFFCURVE",
"685 4 OFFCURVE",
"741 30 CURVE",
"741 -202 LINE",
"817 -202 LINE",
"817 611 LINE",
"922 611 LINE",
"922 679 LINE",
"-17 679 LINE",
"-17 611 LINE",
"87 611 LINE",
"87 166 LINE",
"159 132 LINE",
"230 216 OFFCURVE",
"311 287 OFFCURVE",
"395 346 CURVE",
"395 131 LINE",
"470 131 LINE",
"470 395 LINE",
"561 450 OFFCURVE",
"653 493 OFFCURVE",
"738 523 CURVE",
"741 522 LINE",
"741 112 LINE",
"674 75 OFFCURVE",
"600 58 OFFCURVE",
"526 58 CURVE SMOOTH",
"478 58 OFFCURVE",
"393 68 OFFCURVE",
"327 106 CURVE",
"294 43 LINE",
"350 -4 OFFCURVE",
"385 -61 OFFCURVE",
"385 -118 CURVE SMOOTH",
"385 -164 OFFCURVE",
"370 -192 OFFCURVE",
"315 -240 CURVE",
"373 -293 LINE"
);
},
{
closed = 1;
nodes = (
"164 256 LINE",
"164 611 LINE",
"395 611 LINE",
"395 432 LINE",
"319 382 OFFCURVE",
"243 324 OFFCURVE",
"168 255 CURVE"
);
},
{
closed = 1;
nodes = (
"470 611 LINE",
"743 611 LINE",
"651 575 OFFCURVE",
"560 533 OFFCURVE",
"470 479 CURVE"
);
}
);
width = 915;
}
);
},
{
glyphname = uniA80CuniA80C;
production = uniA80CuniA80C;
lastChange = "2017-09-15 12:55:41 +0000";
layers = (
{
layerId = UUID0;
paths = (
{
closed = 1;
nodes = (
"516 0 LINE",
"516 251 LINE",
"598 189 OFFCURVE",
"697 162 OFFCURVE",
"814 158 CURVE",
"814 0 LINE",
"890 0 LINE",
"890 611 LINE",
"987 611 LINE",
"987 679 LINE",
"-17 679 LINE",
"-17 611 LINE",
"440 611 LINE",
"440 515 LINE",
"419 515 LINE SMOOTH",
"243 515 OFFCURVE",
"144 451 OFFCURVE",
"45 352 CURVE",
"141 215 OFFCURVE",
"273 164 OFFCURVE",
"440 158 CURVE",
"440 0 LINE"
);
},
{
closed = 1;
nodes = (
"304 233 OFFCURVE",
"191 276 OFFCURVE",
"142 339 CURVE",
"191 386 OFFCURVE",
"261 444 OFFCURVE",
"386 444 CURVE SMOOTH",
"403 444 OFFCURVE",
"421 444 OFFCURVE",
"440 443 CURVE",
"440 233 LINE",
"424 233 LINE SMOOTH"
);
},
{
closed = 1;
nodes = (
"678 233 OFFCURVE",
"577 274 OFFCURVE",
"516 339 CURVE",
"567 384 OFFCURVE",
"634 444 OFFCURVE",
"760 444 CURVE SMOOTH",
"777 444 OFFCURVE",
"795 444 OFFCURVE",
"814 443 CURVE",
"814 233 LINE",
"798 233 LINE SMOOTH"
);
},
{
closed = 1;
nodes = (
"516 611 LINE",
"814 611 LINE",
"814 515 LINE",
"793 515 LINE SMOOTH",
"673 515 OFFCURVE",
"588 485 OFFCURVE",
"516 435 CURVE"
);
}
);
width = 979;
}
);
},
{
glyphname = uniA80CuniA80D;
production = uniA80CuniA80D;
lastChange = "2017-09-15 12:55:41 +0000";
layers = (
{
layerId = UUID0;
paths = (
{
closed = 1;
nodes = (
"623 -27 OFFCURVE",
"695 50 OFFCURVE",
"749 91 CURVE",
"749 46 LINE SMOOTH",
"749 -11 OFFCURVE",
"756 -82 OFFCURVE",
"855 -82 CURVE SMOOTH",
"944 -82 OFFCURVE",
"1016 17 OFFCURVE",
"1016 80 CURVE SMOOTH",
"1016 149 OFFCURVE",
"972 195 OFFCURVE",
"874 195 CURVE SMOOTH",
"857 195 OFFCURVE",
"840 192 OFFCURVE",
"823 188 CURVE",
"823 457 LINE",
"739 490 LINE",
"641 421 OFFCURVE",
"590 374 OFFCURVE",
"491 265 CURVE",
"487 266 LINE",
"487 611 LINE",
"1071 611 LINE",
"1071 679 LINE",
"-17 679 LINE",
"-17 611 LINE",
"411 611 LINE",
"411 553 LINE",
"234 553 OFFCURVE",
"134 512 OFFCURVE",
"35 413 CURVE",
"127 282 OFFCURVE",
"262 245 OFFCURVE",
"411 240 CURVE",
"411 166 LINE",
"495 141 LINE",
"595 297 OFFCURVE",
"704 378 OFFCURVE",
"746 405 CURVE",
"749 404 LINE",
"749 166 LINE",
"664 119 OFFCURVE",
"563 23 OFFCURVE",
"514 -122 CURVE",
"582 -147 LINE"
);
},
{
closed = 1;
nodes = (
"293 314 OFFCURVE",
"200 330 OFFCURVE",
"132 400 CURVE",
"183 444 OFFCURVE",
"250 485 OFFCURVE",
"376 485 CURVE SMOOTH",
"387 485 OFFCURVE",
"399 485 OFFCURVE",
"411 484 CURVE",
"411 314 LINE"
);
},
{
closed = 1;
nodes = (
"827 -12 OFFCURVE",
"823 7 OFFCURVE",
"823 44 CURVE SMOOTH",
"823 126 LINE",
"840 131 OFFCURVE",
"856 133 OFFCURVE",
"872 133 CURVE SMOOTH",
"923 133 OFFCURVE",
"940 106 OFFCURVE",
"940 79 CURVE SMOOTH",
"940 35 OFFCURVE",
"903 -12 OFFCURVE",
"856 -12 CURVE SMOOTH"
);
}
);
width = 1062;
}
);
},
{
glyphname = uniA80EuniA80E;
production = uniA80EuniA80E;
lastChange = "2017-09-15 12:55:41 +0000";
layers = (
{
layerId = UUID0;
paths = (
{
closed = 1;
nodes = (
"686 -99 LINE",
"686 611 LINE",
"781 611 LINE",
"781 679 LINE",
"-13 679 LINE",
"-13 611 LINE",
"141 611 LINE",
"87 560 OFFCURVE",
"59 500 OFFCURVE",
"59 434 CURVE SMOOTH",
"59 370 OFFCURVE",
"83 313 OFFCURVE",
"128 275 CURVE",
"83 227 OFFCURVE",
"59 171 OFFCURVE",
"59 111 CURVE SMOOTH",
"59 -5 OFFCURVE",
"138 -98 OFFCURVE",
"282 -98 CURVE SMOOTH",
"387 -98 OFFCURVE",
"486 -57 OFFCURVE",
"486 44 CURVE SMOOTH",
"486 89 OFFCURVE",
"467 116 OFFCURVE",
"438 132 CURVE",
"439 135 LINE",
"610 154 LINE",
"610 -99 LINE"
);
},
{
closed = 1;
nodes = (
"182 -31 OFFCURVE",
"138 30 OFFCURVE",
"138 112 CURVE SMOOTH",
"138 162 OFFCURVE",
"154 205 OFFCURVE",
"187 241 CURVE",
"214 231 OFFCURVE",
"246 225 OFFCURVE",
"282 225 CURVE SMOOTH",
"387 225 OFFCURVE",
"486 267 OFFCURVE",
"486 368 CURVE SMOOTH",
"486 412 OFFCURVE",
"467 439 OFFCURVE",
"438 456 CURVE",
"439 459 LINE",
"610 478 LINE",
"610 220 LINE",
"318 189 LINE",
"314 123 LINE",
"361 122 OFFCURVE",
"410 116 OFFCURVE",
"410 50 CURVE SMOOTH",
"410 -9 OFFCURVE",
"352 -31 OFFCURVE",
"284 -31 CURVE SMOOTH"
);
},
{
closed = 1;
nodes = (
"182 292 OFFCURVE",
"138 353 OFFCURVE",
"138 435 CURVE SMOOTH",
"138 509 OFFCURVE",
"175 569 OFFCURVE",
"245 611 CURVE",
"610 611 LINE",
"610 543 LINE",
"318 512 LINE",
"314 446 LINE",
"361 445 OFFCURVE",
"410 439 OFFCURVE",
"410 374 CURVE SMOOTH",
"410 314 OFFCURVE",
"352 292 OFFCURVE",
"284 292 CURVE SMOOTH"
);
}
);
width = 775;
}
);
},
{
glyphname = uniA814uniA814;
production = uniA814uniA814;
lastChange = "2017-09-15 12:55:41 +0000";
layers = (
{
layerId = UUID0;
paths = (
{
closed = 1;
nodes = (
"280 -49 OFFCURVE",
"307 6 OFFCURVE",
"307 59 CURVE SMOOTH",
"307 95 OFFCURVE",
"298 125 OFFCURVE",
"271 161 CURVE",
"274 164 LINE",
"298 155 OFFCURVE",
"326 149 OFFCURVE",
"355 149 CURVE SMOOTH",
"388 149 OFFCURVE",
"425 154 OFFCURVE",
"464 166 CURVE",
"464 -99 LINE",
"539 -99 LINE",
"539 611 LINE",
"617 611 LINE",
"617 679 LINE",
"-17 679 LINE",
"-17 611 LINE",
"464 611 LINE",
"464 505 LINE",
"399 473 OFFCURVE",
"342 460 OFFCURVE",
"272 460 CURVE SMOOTH",
"208 460 OFFCURVE",
"137 483 OFFCURVE",
"78 517 CURVE",
"37 457 LINE",
"90 419 OFFCURVE",
"102 372 OFFCURVE",
"102 326 CURVE SMOOTH",
"102 286 OFFCURVE",
"77 242 OFFCURVE",
"41 203 CURVE",
"105 155 LINE",
"149 204 OFFCURVE",
"174 256 OFFCURVE",
"174 308 CURVE SMOOTH",
"174 344 OFFCURVE",
"166 380 OFFCURVE",
"147 413 CURVE",
"149 416 LINE",
"195 398 OFFCURVE",
"237 386 OFFCURVE",
"287 386 CURVE SMOOTH",
"350 386 OFFCURVE",
"405 396 OFFCURVE",
"464 424 CURVE",
"464 243 LINE",
"421 226 OFFCURVE",
"376 220 OFFCURVE",
"343 220 CURVE SMOOTH",
"300 220 OFFCURVE",
"254 230 OFFCURVE",
"210 250 CURVE",
"171 185 LINE",
"218 151 OFFCURVE",
"233 113 OFFCURVE",
"233 73 CURVE SMOOTH",
"233 32 OFFCURVE",
"211 -6 OFFCURVE",
"173 -48 CURVE",
"235 -99 LINE"
);
}
);
width = 610;
}
);
},
{
glyphname = uniA818uniA814;
production = uniA818uniA814;
lastChange = "2017-09-15 12:55:41 +0000";
layers = (
{
layerId = UUID0;
paths = (
{
closed = 1;
nodes = (
"229 -108 OFFCURVE",
"257 -55 OFFCURVE",
"257 -2 CURVE SMOOTH",
"257 34 OFFCURVE",
"247 65 OFFCURVE",
"221 100 CURVE",
"223 103 LINE",
"256 93 OFFCURVE",
"289 88 OFFCURVE",
"320 88 CURVE SMOOTH",
"370 88 OFFCURVE",
"418 100 OFFCURVE",
"466 122 CURVE",
"466 -99 LINE",
"541 -99 LINE",
"541 611 LINE",
"627 611 LINE",
"627 679 LINE",
"-17 679 LINE",
"-17 611 LINE",
"158 611 LINE",
"83 550 OFFCURVE",
"30 470 OFFCURVE",
"30 379 CURVE SMOOTH",
"30 273 OFFCURVE",
"105 220 OFFCURVE",
"184 220 CURVE SMOOTH",
"278 220 OFFCURVE",
"330 282 OFFCURVE",
"330 357 CURVE SMOOTH",
"330 428 OFFCURVE",
"291 488 OFFCURVE",
"179 541 CURVE",
"231 598 OFFCURVE",
"291 615 OFFCURVE",
"366 615 CURVE SMOOTH",
"389 615 OFFCURVE",
"432 614 OFFCURVE",
"466 609 CURVE",
"466 199 LINE",
"409 170 OFFCURVE",
"354 155 OFFCURVE",
"299 155 CURVE SMOOTH",
"252 155 OFFCURVE",
"209 162 OFFCURVE",
"160 187 CURVE",
"121 124 LINE",
"168 91 OFFCURVE",
"183 53 OFFCURVE",
"183 12 CURVE SMOOTH",
"183 -28 OFFCURVE",
"161 -67 OFFCURVE",
"122 -109 CURVE",
"185 -158 LINE"
);
},
{
closed = 1;
nodes = (
"130 286 OFFCURVE",
"106 329 OFFCURVE",
"106 380 CURVE SMOOTH",
"106 415 OFFCURVE",
"116 448 OFFCURVE",
"140 484 CURVE",
"221 450 OFFCURVE",
"251 407 OFFCURVE",
"251 358 CURVE SMOOTH",
"251 320 OFFCURVE",
"230 286 OFFCURVE",
"185 286 CURVE SMOOTH"
);
}
);
width = 619;
}
);
},
{
glyphname = uniA818uniA816;
production = uniA818uniA816;
lastChange = "2017-09-15 12:55:41 +0000";
layers = (
{
layerId = UUID0;
paths = (
{
closed = 1;
nodes = (
"954 -164 OFFCURVE",
"982 -155 OFFCURVE",
"1013 -132 CURVE",
"976 -67 LINE",
"958 -78 OFFCURVE",
"936 -89 OFFCURVE",
"913 -89 CURVE SMOOTH",
"875 -89 OFFCURVE",
"866 -60 OFFCURVE",
"866 -19 CURVE SMOOTH",
"866 457 LINE",
"783 490 LINE",
"685 421 OFFCURVE",
"633 384 OFFCURVE",
"534 275 CURVE",
"530 276 LINE",
"530 611 LINE",
"1063 611 LINE",
"1063 679 LINE",
"-17 679 LINE",
"-17 611 LINE",
"289 611 LINE",
"159 538 OFFCURVE",
"53 388 OFFCURVE",
"53 260 CURVE SMOOTH",
"53 154 OFFCURVE",
"129 93 OFFCURVE",
"208 93 CURVE SMOOTH",
"304 93 OFFCURVE",
"358 164 OFFCURVE",
"358 240 CURVE SMOOTH",
"358 316 OFFCURVE",
"322 385 OFFCURVE",
"199 436 CURVE",
"264 526 OFFCURVE",
"348 593 OFFCURVE",
"437 593 CURVE SMOOTH",
"440 593 OFFCURVE",
"449 593 OFFCURVE",
"453 592 CURVE",
"453 176 LINE",
"533 143 LINE",
"619 272 OFFCURVE",
"705 348 OFFCURVE",
"790 406 CURVE",
"793 404 LINE",
"793 -22 LINE SMOOTH",
"793 -87 OFFCURVE",
"813 -164 OFFCURVE",
"915 -164 CURVE SMOOTH"
);
},
{
closed = 1;
nodes = (
"166 163 OFFCURVE",
"131 203 OFFCURVE",
"131 256 CURVE SMOOTH",
"131 296 OFFCURVE",
"141 335 OFFCURVE",
"163 375 CURVE",
"249 339 OFFCURVE",
"280 285 OFFCURVE",
"280 235 CURVE SMOOTH",
"280 198 OFFCURVE",
"254 163 OFFCURVE",
"209 163 CURVE SMOOTH"
);
}
);
width = 1050;
}
);
},
{
glyphname = uniA818uniA818;
production = uniA818uniA818;
lastChange = "2017-09-15 12:55:41 +0000";
layers = (
{
layerId = UUID0;
paths = (
{
closed = 1;
nodes = (
"350 -197 OFFCURVE",
"404 -137 OFFCURVE",
"404 -65 CURVE SMOOTH",
"404 5 OFFCURVE",
"368 59 OFFCURVE",
"259 110 CURVE",
"326 185 OFFCURVE",
"415 212 OFFCURVE",
"509 212 CURVE SMOOTH",
"526 212 LINE",
"526 -99 LINE",
"602 -99 LINE",
"602 611 LINE",
"688 611 LINE",
"688 679 LINE",
"-16 679 LINE",
"-16 611 LINE",
"167 611 LINE",
"80 547 OFFCURVE",
"31 472 OFFCURVE",
"31 384 CURVE SMOOTH",
"31 281 OFFCURVE",
"102 229 OFFCURVE",
"179 229 CURVE SMOOTH",
"270 229 OFFCURVE",
"323 289 OFFCURVE",
"323 362 CURVE SMOOTH",
"323 431 OFFCURVE",
"285 490 OFFCURVE",
"176 541 CURVE",
"229 603 OFFCURVE",
"342 615 OFFCURVE",
"404 615 CURVE SMOOTH",
"436 615 OFFCURVE",
"484 614 OFFCURVE",
"526 609 CURVE",
"526 278 LINE",
"521 278 LINE SMOOTH",
"255 278 OFFCURVE",
"112 92 OFFCURVE",
"112 -42 CURVE SMOOTH",
"112 -145 OFFCURVE",
"183 -197 OFFCURVE",
"260 -197 CURVE SMOOTH"
);
},
{
closed = 1;
nodes = (
"210 -125 OFFCURVE",
"189 -86 OFFCURVE",
"189 -40 CURVE SMOOTH",
"189 -9 OFFCURVE",
"199 22 OFFCURVE",
"219 55 CURVE",
"294 24 OFFCURVE",
"320 -14 OFFCURVE",
"320 -60 CURVE SMOOTH",
"320 -95 OFFCURVE",
"300 -125 OFFCURVE",
"260 -125 CURVE SMOOTH"
);
},
{
closed = 1;
nodes = (
"129 301 OFFCURVE",
"108 340 OFFCURVE",
"108 386 CURVE SMOOTH",
"108 417 OFFCURVE",
"118 448 OFFCURVE",
"138 481 CURVE",
"213 450 OFFCURVE",
"239 412 OFFCURVE",
"239 367 CURVE SMOOTH",
"239 331 OFFCURVE",
"219 301 OFFCURVE",
"179 301 CURVE SMOOTH"
);
}
);
width = 679;
}
);
},
{
glyphname = uniA81BuniA81B;
production = uniA81BuniA81B;
lastChange = "2017-09-15 12:55:41 +0000";
layers = (
{
layerId = UUID0;
paths = (
{
closed = 1;
nodes = (
"445 -119 LINE",
"445 611 LINE",
"531 611 LINE",
"531 679 LINE",
"-17 679 LINE",
"-17 611 LINE",
"370 611 LINE",
"370 534 LINE",
"326 555 OFFCURVE",
"277 570 OFFCURVE",
"221 570 CURVE SMOOTH",
"131 570 OFFCURVE",
"29 532 OFFCURVE",
"29 411 CURVE SMOOTH",
"29 285 OFFCURVE",
"131 251 OFFCURVE",
"220 251 CURVE SMOOTH",
"278 251 OFFCURVE",
"330 264 OFFCURVE",
"370 289 CURVE",
"370 181 LINE",
"328 201 OFFCURVE",
"282 215 OFFCURVE",
"228 215 CURVE SMOOTH",
"141 215 OFFCURVE",
"41 182 OFFCURVE",
"41 65 CURVE SMOOTH",
"41 -57 OFFCURVE",
"139 -96 OFFCURVE",
"225 -96 CURVE SMOOTH",
"279 -96 OFFCURVE",
"331 -81 OFFCURVE",
"370 -58 CURVE",
"370 -119 LINE"
);
},
{
closed = 1;
nodes = (
"185 -28 OFFCURVE",
"118 -16 OFFCURVE",
"118 65 CURVE SMOOTH",
"118 134 OFFCURVE",
"179 150 OFFCURVE",
"232 150 CURVE SMOOTH",
"286 150 OFFCURVE",
"333 131 OFFCURVE",
"370 110 CURVE",
"370 19 LINE",
"337 -5 OFFCURVE",
"289 -28 OFFCURVE",
"236 -28 CURVE SMOOTH"
);
},
{
closed = 1;
nodes = (
"178 322 OFFCURVE",
"109 327 OFFCURVE",
"109 411 CURVE SMOOTH",
"109 494 OFFCURVE",
"182 500 OFFCURVE",
"240 500 CURVE SMOOTH",
"288 500 OFFCURVE",
"334 486 OFFCURVE",
"370 466 CURVE",
"370 371 LINE",
"330 336 OFFCURVE",
"286 322 OFFCURVE",
"231 322 CURVE SMOOTH"
);
}
);
width = 521;
}
);
},
{
glyphname = uniA81DuniA81B;
production = uniA81DuniA81B;
lastChange = "2017-09-15 12:55:41 +0000";
layers = (
{
layerId = UUID0;
paths = (
{
closed = 1;
nodes = (
"658 -119 LINE",
"658 611 LINE",
"743 611 LINE",
"743 679 LINE",
"-17 679 LINE",
"-17 611 LINE",
"33 611 LINE",
"95 558 OFFCURVE",
"144 515 OFFCURVE",
"183 480 CURVE",
"117 421 OFFCURVE",
"90 371 OFFCURVE",
"90 309 CURVE SMOOTH",
"90 242 OFFCURVE",
"139 182 OFFCURVE",
"227 182 CURVE SMOOTH",
"312 182 OFFCURVE",
"367 234 OFFCURVE",
"367 307 CURVE SMOOTH",
"367 369 OFFCURVE",
"342 412 OFFCURVE",
"276 479 CURVE",
"324 517 OFFCURVE",
"388 559 OFFCURVE",
"470 611 CURVE",
"582 611 LINE",
"582 174 LINE",
"538 194 OFFCURVE",
"499 208 OFFCURVE",
"451 208 CURVE SMOOTH",
"367 208 OFFCURVE",
"272 173 OFFCURVE",
"272 59 CURVE SMOOTH",
"272 -60 OFFCURVE",
"365 -100 OFFCURVE",
"449 -100 CURVE SMOOTH",
"504 -100 OFFCURVE",
"543 -89 OFFCURVE",
"582 -66 CURVE",
"582 -119 LINE"
);
},
{
closed = 1;
nodes = (
"401 -34 OFFCURVE",
"346 -17 OFFCURVE",
"346 59 CURVE SMOOTH",
"346 125 OFFCURVE",
"403 144 OFFCURVE",
"454 144 CURVE SMOOTH",
"501 144 OFFCURVE",
"543 129 OFFCURVE",
"582 107 CURVE",
"582 9 LINE",
"548 -17 OFFCURVE",
"512 -34 OFFCURVE",
"458 -34 CURVE SMOOTH"
);
},
{
closed = 1;
nodes = (
"181 244 OFFCURVE",
"162 281 OFFCURVE",
"162 316 CURVE SMOOTH",
"162 355 OFFCURVE",
"182 393 OFFCURVE",
"227 437 CURVE",
"275 387 OFFCURVE",
"297 352 OFFCURVE",
"297 314 CURVE SMOOTH",
"297 269 OFFCURVE",
"265 244 OFFCURVE",
"227 244 CURVE SMOOTH"
);
},
{
closed = 1;
nodes = (
"206 547 OFFCURVE",
"173 576 OFFCURVE",
"136 611 CURVE",
"356 611 LINE",
"308 577 OFFCURVE",
"267 548 OFFCURVE",
"233 521 CURVE"
);
}
);
width = 737;
}
);
},
{
glyphname = uniA81DuniA81D;
production = uniA81DuniA81D;
lastChange = "2017-09-15 12:55:41 +0000";
layers = (
{
layerId = UUID0;
paths = (
{
closed = 1;
nodes = (
"710 -99 LINE",
"710 611 LINE",
"796 611 LINE",
"796 679 LINE",
"-5 679 LINE",
"-5 611 LINE",
"20 611 LINE",
"82 558 OFFCURVE",
"126 515 OFFCURVE",
"165 480 CURVE",
"99 421 OFFCURVE",
"72 371 OFFCURVE",
"72 309 CURVE SMOOTH",
"72 242 OFFCURVE",
"121 182 OFFCURVE",
"209 182 CURVE SMOOTH",
"265 182 OFFCURVE",
"307 204 OFFCURVE",
"329 240 CURVE",
"346 227 OFFCURVE",
"361 214 OFFCURVE",
"375 203 CURVE",
"313 146 OFFCURVE",
"286 97 OFFCURVE",
"286 36 CURVE SMOOTH",
"286 -30 OFFCURVE",
"335 -91 OFFCURVE",
"423 -91 CURVE SMOOTH",
"508 -91 OFFCURVE",
"562 -38 OFFCURVE",
"562 34 CURVE SMOOTH",
"562 98 OFFCURVE",
"539 136 OFFCURVE",
"468 203 CURVE",
"510 236 OFFCURVE",
"565 274 OFFCURVE",
"634 318 CURVE",
"634 -99 LINE"
);
},
{
closed = 1;
nodes = (
"377 -28 OFFCURVE",
"357 8 OFFCURVE",
"357 43 CURVE SMOOTH",
"357 82 OFFCURVE",
"377 119 OFFCURVE",
"421 162 CURVE",
"474 113 OFFCURVE",
"493 80 OFFCURVE",
"493 41 CURVE SMOOTH",
"493 -4 OFFCURVE",
"460 -28 OFFCURVE",
"423 -28 CURVE SMOOTH"
);
},
{
closed = 1;
nodes = (
"162 244 OFFCURVE",
"143 281 OFFCURVE",
"143 316 CURVE SMOOTH",
"143 355 OFFCURVE",
"163 393 OFFCURVE",
"209 437 CURVE",
"257 388 OFFCURVE",
"279 352 OFFCURVE",
"279 314 CURVE SMOOTH",
"279 269 OFFCURVE",
"246 244 OFFCURVE",
"209 244 CURVE SMOOTH"
);
},
{
closed = 1;
nodes = (
"187 547 OFFCURVE",
"156 576 OFFCURVE",
"118 611 CURVE",
"338 611 LINE",
"289 577 OFFCURVE",
"249 548 OFFCURVE",
"214 521 CURVE"
);
},
{
closed = 1;
nodes = (
"401 263 OFFCURVE",
"376 284 OFFCURVE",
"348 309 CURVE",
"347 370 OFFCURVE",
"323 412 OFFCURVE",
"258 479 CURVE",
"306 517 OFFCURVE",
"369 560 OFFCURVE",
"451 611 CURVE",
"634 611 LINE",
"634 393 LINE",
"545 333 OFFCURVE",
"475 285 OFFCURVE",
"423 244 CURVE"
);
}
);
width = 788;
}
);
},
{
glyphname = uniA81EuniA81F;
production = uniA81EuniA81F;
lastChange = "2017-09-15 12:55:41 +0000";
layers = (
{
layerId = UUID0;
paths = (
{
closed = 1;
nodes = (
"585 -99 LINE",
"585 611 LINE",
"670 611 LINE",
"670 679 LINE",
"-17 679 LINE",
"-17 611 LINE",
"439 611 LINE",
"366 552 OFFCURVE",
"298 493 OFFCURVE",
"222 420 CURVE SMOOTH",
"185 384 OFFCURVE",
"168 369 OFFCURVE",
"142 369 CURVE SMOOTH",
"125 369 OFFCURVE",
"107 377 OFFCURVE",
"88 399 CURVE",
"34 346 LINE",
"65 304 OFFCURVE",
"98 290 OFFCURVE",
"136 290 CURVE SMOOTH",
"195 290 OFFCURVE",
"230 325 OFFCURVE",
"283 379 CURVE SMOOTH",
"364 462 OFFCURVE",
"430 518 OFFCURVE",
"506 576 CURVE",
"509 573 LINE",
"509 458 LINE",
"407 379 OFFCURVE",
"336 310 OFFCURVE",
"244 215 CURVE SMOOTH",
"208 178 OFFCURVE",
"189 159 OFFCURVE",
"164 159 CURVE SMOOTH",
"146 159 OFFCURVE",
"128 167 OFFCURVE",
"109 189 CURVE",
"55 136 LINE",
"86 94 OFFCURVE",
"119 80 OFFCURVE",
"157 80 CURVE SMOOTH",
"216 80 OFFCURVE",
"255 119 OFFCURVE",
"305 174 CURVE SMOOTH",
"382 260 OFFCURVE",
"438 313 OFFCURVE",
"509 369 CURVE",
"509 -99 LINE"
);
},
{
closed = 1;
nodes = (
"411 -135 LINE",
"372 -111 OFFCURVE",
"347 -77 OFFCURVE",
"347 -22 CURVE SMOOTH",
"347 48 OFFCURVE",
"395 92 OFFCURVE",
"448 129 CURVE",
"411 180 LINE",
"350 136 OFFCURVE",
"277 73 OFFCURVE",
"277 -26 CURVE SMOOTH",
"277 -107 OFFCURVE",
"321 -164 OFFCURVE",
"367 -191 CURVE"
);
}
);
width = 663;
}
);
},
{
glyphname = uniA821uniA807;
production = uniA821uniA807;
lastChange = "2017-09-15 12:55:41 +0000";
layers = (
{
layerId = UUID0;
paths = (
{
closed = 1;
nodes = (
"394 5 LINE",
"342 123 OFFCURVE",
"250 198 OFFCURVE",
"175 219 CURVE",
"176 223 LINE",
"252 228 OFFCURVE",
"318 264 OFFCURVE",
"351 316 CURVE",
"401 362 OFFCURVE",
"454 407 OFFCURVE",
"511 450 CURVE",
"511 95 LINE",
"583 62 LINE",
"669 162 OFFCURVE",
"751 242 OFFCURVE",
"829 306 CURVE",
"829 0 LINE",
"904 0 LINE",
"904 366 LINE",
"1004 440 OFFCURVE",
"1095 489 OFFCURVE",
"1173 523 CURVE",
"1176 522 LINE",
"1176 0 LINE",
"1251 0 LINE",
"1251 611 LINE",
"1326 611 LINE",
"1326 679 LINE",
"-7 679 LINE",
"-7 611 LINE",
"511 611 LINE",
"511 537 LINE",
"459 498 OFFCURVE",
"411 461 OFFCURVE",
"370 426 CURVE",
"355 511 OFFCURVE",
"290 562 OFFCURVE",
"218 562 CURVE SMOOTH",
"155 562 OFFCURVE",
"86 539 OFFCURVE",
"34 495 CURVE",
"80 434 LINE",
"133 481 OFFCURVE",
"178 493 OFFCURVE",
"216 493 CURVE SMOOTH",
"265 493 OFFCURVE",
"299 454 OFFCURVE",
"299 393 CURVE SMOOTH",
"299 312 OFFCURVE",
"165 279 OFFCURVE",
"65 270 CURVE",
"65 196 LINE",
"139 179 OFFCURVE",
"259 130 OFFCURVE",
"320 -31 CURVE"
);
},
{
closed = 1;
nodes = (
"588 190 LINE",
"588 611 LINE",
"829 611 LINE",
"829 403 LINE",
"750 343 OFFCURVE",
"670 273 OFFCURVE",
"592 189 CURVE"
);
},
{
closed = 1;
nodes = (
"904 611 LINE",
"1178 611 LINE",
"1093 570 OFFCURVE",
"1000 521 OFFCURVE",
"904 456 CURVE"
);
}
);
width = 1321;
}
);
},
{
glyphname = uniA821uniA80C;
production = uniA821uniA80C;
lastChange = "2017-09-15 12:55:41 +0000";
layers = (
{
layerId = UUID0;
paths = (
{
closed = 1;
nodes = (
"394 5 LINE",
"342 123 OFFCURVE",
"250 198 OFFCURVE",
"175 219 CURVE",
"176 223 LINE",
"248 228 OFFCURVE",
"313 261 OFFCURVE",
"347 309 CURVE",
"443 386 OFFCURVE",
"595 470 OFFCURVE",
"696 518 CURVE",
"699 517 LINE",
"699 361 LINE",
"535 361 OFFCURVE",
"454 323 OFFCURVE",
"364 230 CURVE",
"447 111 OFFCURVE",
"562 77 OFFCURVE",
"699 72 CURVE",
"699 0 LINE",
"775 0 LINE",
"775 611 LINE",
"860 611 LINE",
"860 679 LINE",
"-17 679 LINE",
"-17 611 LINE",
"701 611 LINE",
"590 550 OFFCURVE",
"462 479 OFFCURVE",
"372 417 CURVE",
"361 507 OFFCURVE",
"292 562 OFFCURVE",
"218 562 CURVE SMOOTH",
"155 562 OFFCURVE",
"86 539 OFFCURVE",
"34 495 CURVE",
"80 434 LINE",
"133 481 OFFCURVE",
"178 493 OFFCURVE",
"216 493 CURVE SMOOTH",
"265 493 OFFCURVE",
"299 454 OFFCURVE",
"299 393 CURVE SMOOTH",
"299 312 OFFCURVE",
"165 279 OFFCURVE",
"65 270 CURVE",
"65 196 LINE",
"139 179 OFFCURVE",
"259 130 OFFCURVE",
"320 -31 CURVE"
);
},
{
closed = 1;
nodes = (
"573 144 OFFCURVE",
"509 163 OFFCURVE",
"460 221 CURVE",
"508 274 OFFCURVE",
"573 291 OFFCURVE",
"652 291 CURVE SMOOTH",
"668 291 OFFCURVE",
"683 291 OFFCURVE",
"699 289 CURVE",
"699 145 LINE",
"687 144 OFFCURVE",
"675 144 OFFCURVE",
"664 144 CURVE SMOOTH"
);
}
);
width = 851;
}
);
},
{
glyphname = uniA821uniA80D;
production = uniA821uniA80D;
lastChange = "2017-09-15 12:55:41 +0000";
layers = (
{
layerId = UUID0;
paths = (
{
closed = 1;
nodes = (
"724 -27 OFFCURVE",
"796 50 OFFCURVE",
"850 91 CURVE",
"850 46 LINE SMOOTH",
"850 -11 OFFCURVE",
"857 -82 OFFCURVE",
"956 -82 CURVE SMOOTH",
"1045 -82 OFFCURVE",
"1117 17 OFFCURVE",
"1117 80 CURVE SMOOTH",
"1117 149 OFFCURVE",
"1073 195 OFFCURVE",
"975 195 CURVE SMOOTH",
"958 195 OFFCURVE",
"941 192 OFFCURVE",
"924 188 CURVE",
"924 457 LINE",
"840 490 LINE",
"742 421 OFFCURVE",
"691 384 OFFCURVE",
"592 275 CURVE",
"588 276 LINE",
"588 611 LINE",
"1172 611 LINE",
"1172 679 LINE",
"-8 679 LINE",
"-8 611 LINE",
"511 611 LINE",
"511 537 LINE",
"459 498 OFFCURVE",
"411 461 OFFCURVE",
"370 426 CURVE",
"355 511 OFFCURVE",
"290 562 OFFCURVE",
"218 562 CURVE SMOOTH",
"155 562 OFFCURVE",
"86 539 OFFCURVE",
"34 495 CURVE",
"80 434 LINE",
"133 481 OFFCURVE",
"178 493 OFFCURVE",
"216 493 CURVE SMOOTH",
"265 493 OFFCURVE",
"299 454 OFFCURVE",
"299 393 CURVE SMOOTH",
"299 312 OFFCURVE",
"165 279 OFFCURVE",
"65 270 CURVE",
"65 196 LINE",
"139 179 OFFCURVE",
"259 130 OFFCURVE",
"320 -31 CURVE",
"394 5 LINE",
"342 123 OFFCURVE",
"250 198 OFFCURVE",
"175 219 CURVE",
"176 223 LINE",
"252 228 OFFCURVE",
"318 264 OFFCURVE",
"351 316 CURVE",
"401 362 OFFCURVE",
"454 407 OFFCURVE",
"511 450 CURVE",
"511 176 LINE",
"591 143 LINE",
"691 304 OFFCURVE",
"805 378 OFFCURVE",
"847 405 CURVE",
"850 404 LINE",
"850 166 LINE",
"765 119 OFFCURVE",
"664 23 OFFCURVE",
"615 -122 CURVE",
"683 -147 LINE"
);
},
{
closed = 1;
nodes = (
"928 -12 OFFCURVE",
"924 7 OFFCURVE",
"924 44 CURVE SMOOTH",
"924 126 LINE",
"941 131 OFFCURVE",
"957 133 OFFCURVE",
"973 133 CURVE SMOOTH",
"1024 133 OFFCURVE",
"1041 106 OFFCURVE",
"1041 79 CURVE SMOOTH",
"1041 35 OFFCURVE",
"1004 -12 OFFCURVE",
"957 -12 CURVE SMOOTH"
);
}
);
width = 1165;
}
);
},
{
glyphname = uniA821uniA814;
production = uniA821uniA814;
lastChange = "2017-09-15 12:55:41 +0000";
layers = (
{
layerId = UUID0;
paths = (
{
closed = 1;
nodes = (
"530 -9 OFFCURVE",
"560 57 OFFCURVE",
"560 109 CURVE SMOOTH",
"560 145 OFFCURVE",
"550 176 OFFCURVE",
"524 211 CURVE",
"526 214 LINE",
"559 204 OFFCURVE",
"592 199 OFFCURVE",
"623 199 CURVE SMOOTH",
"652 199 OFFCURVE",
"676 203 OFFCURVE",
"699 211 CURVE",
"699 0 LINE",
"775 0 LINE",
"775 611 LINE",
"860 611 LINE",
"860 679 LINE",
"-17 679 LINE",
"-17 611 LINE",
"701 611 LINE",
"590 550 OFFCURVE",
"462 479 OFFCURVE",
"372 417 CURVE",
"361 507 OFFCURVE",
"292 562 OFFCURVE",
"218 562 CURVE SMOOTH",
"155 562 OFFCURVE",
"86 539 OFFCURVE",
"34 495 CURVE",
"80 434 LINE",
"133 481 OFFCURVE",
"178 493 OFFCURVE",
"216 493 CURVE SMOOTH",
"265 493 OFFCURVE",
"299 454 OFFCURVE",
"299 393 CURVE SMOOTH",
"299 312 OFFCURVE",
"165 279 OFFCURVE",
"65 270 CURVE",
"65 196 LINE",
"139 179 OFFCURVE",
"248 130 OFFCURVE",
"310 -31 CURVE",
"384 5 LINE",
"332 123 OFFCURVE",
"250 198 OFFCURVE",
"175 219 CURVE",
"176 223 LINE",
"248 228 OFFCURVE",
"313 261 OFFCURVE",
"347 309 CURVE",
"443 386 OFFCURVE",
"595 470 OFFCURVE",
"696 518 CURVE",
"699 517 LINE",
"699 286 LINE",
"667 273 OFFCURVE",
"639 266 OFFCURVE",
"602 266 CURVE SMOOTH",
"555 266 OFFCURVE",
"512 273 OFFCURVE",
"463 298 CURVE",
"424 235 LINE",
"471 202 OFFCURVE",
"486 164 OFFCURVE",
"486 123 CURVE SMOOTH",
"486 83 OFFCURVE",
"462 32 OFFCURVE",
"423 -10 CURVE",
"486 -59 LINE"
);
}
);
width = 851;
}
);
},
{
glyphname = uniA821uniA81B;
production = uniA821uniA81B;
lastChange = "2017-09-15 12:55:41 +0000";
layers = (
{
layerId = UUID0;
paths = (
{
closed = 1;
nodes = (
"394 5 LINE",
"342 123 OFFCURVE",
"250 198 OFFCURVE",
"175 219 CURVE",
"176 223 LINE",
"248 228 OFFCURVE",
"313 261 OFFCURVE",
"347 309 CURVE",
"443 386 OFFCURVE",
"595 470 OFFCURVE",
"696 518 CURVE",
"699 517 LINE",
"699 312 LINE",
"656 332 OFFCURVE",
"616 346 OFFCURVE",
"569 346 CURVE SMOOTH",
"484 346 OFFCURVE",
"389 310 OFFCURVE",
"389 196 CURVE SMOOTH",
"389 75 OFFCURVE",
"487 35 OFFCURVE",
"573 35 CURVE SMOOTH",
"626 35 OFFCURVE",
"662 51 OFFCURVE",
"699 74 CURVE",
"699 0 LINE",
"775 0 LINE",
"775 611 LINE",
"860 611 LINE",
"860 679 LINE",
"-17 679 LINE",
"-17 611 LINE",
"701 611 LINE",
"590 550 OFFCURVE",
"462 479 OFFCURVE",
"372 417 CURVE",
"361 507 OFFCURVE",
"292 562 OFFCURVE",
"218 562 CURVE SMOOTH",
"155 562 OFFCURVE",
"86 539 OFFCURVE",
"34 495 CURVE",
"80 434 LINE",
"133 481 OFFCURVE",
"178 493 OFFCURVE",
"216 493 CURVE SMOOTH",
"265 493 OFFCURVE",
"299 454 OFFCURVE",
"299 393 CURVE SMOOTH",
"299 312 OFFCURVE",
"165 279 OFFCURVE",
"65 270 CURVE",
"65 196 LINE",
"139 179 OFFCURVE",
"259 130 OFFCURVE",
"320 -31 CURVE"
);
},
{
closed = 1;
nodes = (
"525 102 OFFCURVE",
"466 118 OFFCURVE",
"466 196 CURVE SMOOTH",
"466 266 OFFCURVE",
"523 282 OFFCURVE",
"577 282 CURVE SMOOTH",
"626 282 OFFCURVE",
"663 269 OFFCURVE",
"699 247 CURVE",
"699 144 LINE",
"666 118 OFFCURVE",
"626 102 OFFCURVE",
"576 102 CURVE SMOOTH"
);
}
);
width = 851;
}
);
},
{
glyphname = uni2010;
lastChange = "2017-09-15 12:55:41 +0000";
layers = (
{
layerId = UUID0;
paths = (
{
closed = 1;
nodes = (
"282 307 LINE",
"40 307 LINE",
"40 229 LINE",
"282 229 LINE"
);
}
);
width = 322;
}
);
note = uni2010;
unicode = 2010;
},
{
glyphname = uni2011;
lastChange = "2017-09-15 12:55:41 +0000";
layers = (
{
layerId = UUID0;
paths = (
{
closed = 1;
nodes = (
"282 307 LINE",
"40 307 LINE",
"40 229 LINE",
"282 229 LINE"
);
}
);
width = 322;
}
);
note = uni2011;
unicode = 2011;
},
{
glyphname = uni2055;
lastChange = "2017-09-15 12:55:41 +0000";
layers = (
{
layerId = UUID0;
paths = (
{
closed = 1;
nodes = (
"380 59 OFFCURVE",
"398 101 OFFCURVE",
"398 153 CURVE SMOOTH",
"398 179 OFFCURVE",
"393 206 OFFCURVE",
"387 230 CURVE",
"420 202 OFFCURVE",
"475 167 OFFCURVE",
"518 167 CURVE SMOOTH",
"566 167 OFFCURVE",
"596 221 OFFCURVE",
"596 263 CURVE SMOOTH",
"596 301 OFFCURVE",
"568 324 OFFCURVE",
"531 338 CURVE SMOOTH",
"511 346 OFFCURVE",
"487 350 OFFCURVE",
"465 353 CURVE",
"526 369 OFFCURVE",
"594 403 OFFCURVE",
"594 459 CURVE SMOOTH",
"594 503 OFFCURVE",
"553 549 OFFCURVE",
"513 549 CURVE SMOOTH",
"468 549 OFFCURVE",
"419 510 OFFCURVE",
"387 474 CURVE",
"393 497 OFFCURVE",
"398 525 OFFCURVE",
"398 550 CURVE SMOOTH",
"398 603 OFFCURVE",
"380 645 OFFCURVE",
"313 645 CURVE SMOOTH",
"248 645 OFFCURVE",
"229 603 OFFCURVE",
"229 549 CURVE SMOOTH",
"229 524 OFFCURVE",
"234 497 OFFCURVE",
"240 474 CURVE",
"222 493 OFFCURVE",
"198 515 OFFCURVE",
"174 530 CURVE SMOOTH",
"155 542 OFFCURVE",
"135 549 OFFCURVE",
"115 549 CURVE SMOOTH",
"76 549 OFFCURVE",
"33 503 OFFCURVE",
"33 459 CURVE SMOOTH",
"33 403 OFFCURVE",
"105 367 OFFCURVE",
"162 353 CURVE",
"98 346 OFFCURVE",
"31 321 OFFCURVE",
"31 262 CURVE SMOOTH",
"31 212 OFFCURVE",
"69 167 OFFCURVE",
"109 167 CURVE SMOOTH",
"126 167 OFFCURVE",
"140 172 OFFCURVE",
"157 179 CURVE SMOOTH",
"188 191 OFFCURVE",
"217 212 OFFCURVE",
"240 229 CURVE",
"234 207 OFFCURVE",
"229 179 OFFCURVE",
"229 154 CURVE SMOOTH",
"229 101 OFFCURVE",
"248 59 OFFCURVE",
"313 59 CURVE SMOOTH"
);
},
{
closed = 1;
nodes = (
"98 232 OFFCURVE",
"91 240 OFFCURVE",
"91 252 CURVE SMOOTH",
"91 279 OFFCURVE",
"145 285 OFFCURVE",
"199 300 CURVE",
"202 291 OFFCURVE",
"206 284 OFFCURVE",
"212 276 CURVE",
"189 263 OFFCURVE",
"129 232 OFFCURVE",
"110 232 CURVE SMOOTH"
);
},
{
closed = 1;
nodes = (
"297 115 OFFCURVE",
"291 133 OFFCURVE",
"291 154 CURVE SMOOTH",
"291 179 OFFCURVE",
"295 208 OFFCURVE",
"299 229 CURVE",
"303 229 OFFCURVE",
"308 228 OFFCURVE",
"312 228 CURVE SMOOTH",
"317 228 OFFCURVE",
"322 228 OFFCURVE",
"327 229 CURVE",
"331 207 OFFCURVE",
"336 178 OFFCURVE",
"336 153 CURVE SMOOTH",
"336 133 OFFCURVE",
"330 115 OFFCURVE",
"313 115 CURVE SMOOTH"
);
},
{
closed = 1;
nodes = (
"155 421 OFFCURVE",
"94 442 OFFCURVE",
"94 467 CURVE SMOOTH",
"94 478 OFFCURVE",
"103 485 OFFCURVE",
"113 485 CURVE SMOOTH",
"142 485 OFFCURVE",
"192 438 OFFCURVE",
"214 417 CURVE",
"210 413 OFFCURVE",
"206 408 OFFCURVE",
"203 402 CURVE"
);
},
{
closed = 1;
nodes = (
"278 286 OFFCURVE",
"254 313 OFFCURVE",
"254 345 CURVE SMOOTH",
"254 378 OFFCURVE",
"278 404 OFFCURVE",
"311 404 CURVE SMOOTH",
"345 404 OFFCURVE",
"372 378 OFFCURVE",
"372 345 CURVE SMOOTH",
"372 313 OFFCURVE",
"345 286 OFFCURVE",
"311 286 CURVE SMOOTH"
);
},
{
closed = 1;
nodes = (
"496 232 OFFCURVE",
"441 262 OFFCURVE",
"416 280 CURVE",
"422 286 OFFCURVE",
"426 292 OFFCURVE",
"429 299 CURVE",
"480 287 OFFCURVE",
"536 279 OFFCURVE",
"536 252 CURVE SMOOTH",
"536 239 OFFCURVE",
"526 232 OFFCURVE",
"518 232 CURVE SMOOTH"
);
},
{
closed = 1;
nodes = (
"297 485 OFFCURVE",
"291 520 OFFCURVE",
"291 549 CURVE SMOOTH",
"291 571 OFFCURVE",
"297 589 OFFCURVE",
"313 589 CURVE SMOOTH",
"330 589 OFFCURVE",
"336 571 OFFCURVE",
"336 550 CURVE SMOOTH",
"336 520 OFFCURVE",
"329 485 OFFCURVE",
"324 462 CURVE",
"320 463 OFFCURVE",
"317 463 OFFCURVE",
"311 463 CURVE SMOOTH",
"308 463 OFFCURVE",
"305 462 OFFCURVE",
"301 462 CURVE"
);
},
{
closed = 1;
nodes = (
"422 407 OFFCURVE",
"416 415 OFFCURVE",
"410 421 CURVE",
"427 435 OFFCURVE",
"457 459 OFFCURVE",
"486 476 CURVE SMOOTH",
"496 482 OFFCURVE",
"508 485 OFFCURVE",
"515 485 CURVE SMOOTH",
"524 485 OFFCURVE",
"533 478 OFFCURVE",
"533 467 CURVE SMOOTH",
"533 456 OFFCURVE",
"523 447 OFFCURVE",
"511 440 CURVE SMOOTH",
"483 424 OFFCURVE",
"450 409 OFFCURVE",
"426 399 CURVE"
);
}
);
width = 639;
}
);
unicode = 2055;
},
{
glyphname = uni25CC;
lastChange = "2017-09-15 12:55:41 +0000";
layers = (
{
layerId = UUID0;
paths = (
{
closed = 1;
nodes = (
"480 466 OFFCURVE",
"472 475 OFFCURVE",
"455 475 CURVE SMOOTH",
"437 475 OFFCURVE",
"428 466 OFFCURVE",
"428 448 CURVE SMOOTH",
"428 431 OFFCURVE",
"437 422 OFFCURVE",
"455 422 CURVE SMOOTH",
"472 422 OFFCURVE",
"480 431 OFFCURVE",
"480 448 CURVE SMOOTH"
);
},
{
closed = 1;
nodes = (
"408 514 OFFCURVE",
"400 523 OFFCURVE",
"383 523 CURVE SMOOTH",
"364 523 OFFCURVE",
"355 514 OFFCURVE",
"355 496 CURVE SMOOTH",
"355 479 OFFCURVE",
"364 470 OFFCURVE",
"383 470 CURVE SMOOTH",
"400 470 OFFCURVE",
"408 479 OFFCURVE",
"408 496 CURVE SMOOTH"
);
},
{
closed = 1;
nodes = (
"529 393 OFFCURVE",
"520 402 OFFCURVE",
"503 402 CURVE SMOOTH",
"485 402 OFFCURVE",
"476 393 OFFCURVE",
"476 376 CURVE SMOOTH",
"476 358 OFFCURVE",
"485 349 OFFCURVE",
"502 349 CURVE SMOOTH",
"520 349 OFFCURVE",
"529 358 OFFCURVE",
"529 376 CURVE SMOOTH"
);
},
{
closed = 1;
nodes = (
"546 308 OFFCURVE",
"538 317 OFFCURVE",
"521 317 CURVE SMOOTH",
"503 317 OFFCURVE",
"494 308 OFFCURVE",
"494 291 CURVE SMOOTH",
"494 274 OFFCURVE",
"503 265 OFFCURVE",
"521 265 CURVE SMOOTH",
"538 265 OFFCURVE",
"546 274 OFFCURVE",
"546 291 CURVE SMOOTH"
);
},
{
closed = 1;
nodes = (
"323 531 OFFCURVE",
"314 540 OFFCURVE",
"297 540 CURVE SMOOTH",
"280 540 OFFCURVE",
"271 531 OFFCURVE",
"271 514 CURVE SMOOTH",
"271 496 OFFCURVE",
"280 487 OFFCURVE",
"297 487 CURVE SMOOTH",
"314 487 OFFCURVE",
"323 496 OFFCURVE",
"323 514 CURVE SMOOTH"
);
},
{
closed = 1;
nodes = (
"239 514 OFFCURVE",
"230 523 OFFCURVE",
"212 523 CURVE SMOOTH",
"195 523 OFFCURVE",
"186 514 OFFCURVE",
"186 496 CURVE SMOOTH",
"186 479 OFFCURVE",
"195 470 OFFCURVE",
"212 470 CURVE SMOOTH",
"230 470 OFFCURVE",
"239 479 OFFCURVE",
"239 496 CURVE SMOOTH"
);
},
{
closed = 1;
nodes = (
"529 224 OFFCURVE",
"520 233 OFFCURVE",
"502 233 CURVE SMOOTH",
"485 233 OFFCURVE",
"476 224 OFFCURVE",
"476 206 CURVE SMOOTH",
"476 189 OFFCURVE",
"485 180 OFFCURVE",
"502 180 CURVE SMOOTH",
"520 180 OFFCURVE",
"529 189 OFFCURVE",
"529 206 CURVE SMOOTH"
);
},
{
closed = 1;
nodes = (
"167 466 OFFCURVE",
"158 475 OFFCURVE",
"140 475 CURVE SMOOTH",
"123 475 OFFCURVE",
"114 466 OFFCURVE",
"114 447 CURVE SMOOTH",
"114 430 OFFCURVE",
"123 422 OFFCURVE",
"140 422 CURVE SMOOTH",
"158 422 OFFCURVE",
"167 431 OFFCURVE",
"167 448 CURVE SMOOTH"
);
},
{
closed = 1;
nodes = (
"480 151 OFFCURVE",
"472 160 OFFCURVE",
"455 160 CURVE SMOOTH",
"437 160 OFFCURVE",
"428 151 OFFCURVE",
"428 133 CURVE SMOOTH",
"428 116 OFFCURVE",
"437 107 OFFCURVE",
"455 107 CURVE SMOOTH",
"472 107 OFFCURVE",
"480 116 OFFCURVE",
"480 133 CURVE SMOOTH"
);
},
{
closed = 1;
nodes = (
"408 103 OFFCURVE",
"400 112 OFFCURVE",
"383 112 CURVE SMOOTH",
"364 112 OFFCURVE",
"355 103 OFFCURVE",
"355 85 CURVE SMOOTH",
"355 68 OFFCURVE",
"364 60 OFFCURVE",
"383 60 CURVE SMOOTH",
"400 60 OFFCURVE",
"408 68 OFFCURVE",
"408 85 CURVE SMOOTH"
);
},
{
closed = 1;
nodes = (
"118 393 OFFCURVE",
"109 402 OFFCURVE",
"92 402 CURVE SMOOTH",
"74 402 OFFCURVE",
"65 393 OFFCURVE",
"65 376 CURVE SMOOTH",
"65 358 OFFCURVE",
"74 349 OFFCURVE",
"93 349 CURVE SMOOTH",
"110 349 OFFCURVE",
"118 358 OFFCURVE",
"118 376 CURVE SMOOTH"
);
},
{
closed = 1;
nodes = (
"101 308 OFFCURVE",
"92 317 OFFCURVE",
"75 317 CURVE SMOOTH",
"57 317 OFFCURVE",
"48 308 OFFCURVE",
"48 291 CURVE SMOOTH",
"48 274 OFFCURVE",
"57 265 OFFCURVE",
"75 265 CURVE SMOOTH",
"92 265 OFFCURVE",
"101 274 OFFCURVE",
"101 291 CURVE SMOOTH"
);
},
{
closed = 1;
nodes = (
"323 86 OFFCURVE",
"314 95 OFFCURVE",
"297 95 CURVE SMOOTH",
"280 95 OFFCURVE",
"271 86 OFFCURVE",
"271 69 CURVE SMOOTH",
"271 51 OFFCURVE",
"280 42 OFFCURVE",
"297 42 CURVE SMOOTH",
"314 42 OFFCURVE",
"323 51 OFFCURVE",
"323 69 CURVE SMOOTH"
);
},
{
closed = 1;
nodes = (
"118 224 OFFCURVE",
"109 233 OFFCURVE",
"92 233 CURVE SMOOTH",
"74 233 OFFCURVE",
"65 224 OFFCURVE",
"65 206 CURVE SMOOTH",
"65 189 OFFCURVE",
"74 180 OFFCURVE",
"92 180 CURVE SMOOTH",
"109 180 OFFCURVE",
"118 189 OFFCURVE",
"118 206 CURVE SMOOTH"
);
},
{
closed = 1;
nodes = (
"239 104 OFFCURVE",
"230 112 OFFCURVE",
"212 112 CURVE SMOOTH",
"195 112 OFFCURVE",
"186 103 OFFCURVE",
"186 85 CURVE SMOOTH",
"186 68 OFFCURVE",
"195 60 OFFCURVE",
"212 60 CURVE SMOOTH",
"230 60 OFFCURVE",
"239 69 OFFCURVE",
"239 87 CURVE SMOOTH"
);
},
{
closed = 1;
nodes = (
"167 151 OFFCURVE",
"158 160 OFFCURVE",
"140 160 CURVE SMOOTH",
"123 160 OFFCURVE",
"114 151 OFFCURVE",
"114 133 CURVE SMOOTH",
"114 116 OFFCURVE",
"123 107 OFFCURVE",
"140 107 CURVE SMOOTH",
"158 107 OFFCURVE",
"167 116 OFFCURVE",
"167 133 CURVE SMOOTH"
);
}
